<?xml version="1.0" encoding="UTF-8" standalone="no"?>
<svg width="21px" height="20px" viewBox="0 0 21 20" version="1.1" xmlns="http://www.w3.org/2000/svg" xmlns:xlink="http://www.w3.org/1999/xlink" xmlns:sketch="http://www.bohemiancoding.com/sketch/ns">
    <!-- Generator: Sketch 3.4.2 (15855) - http://www.bohemiancoding.com/sketch -->
    <title>Shape</title>
    <desc>Created with Sketch.</desc>
    <defs></defs>
    <g id="Social-Icons" stroke="none" stroke-width="1" fill="none" fill-rule="evenodd" sketch:type="MSPage">
        <g sketch:type="MSArtboardGroup" transform="translate(-273.000000, -10.000000)" id="Shape" fill="#117B7B">
            <path d="M273,18.0343106 C273,21.6550361 274.955625,24.7339743 278.289375,25.7250488 C278.263125,25.8439777 278.25,25.9496923 278.25,26.0686213 L278.25,28.8964872 C278.25,29.8479187 278.919375,29.9139903 279.601875,29.2400597 L283.5,25.857192 L285.88875,25.857192 C290.364375,25.857192 294,22.2628952 294,17.8228814 C294,13.3828676 290.364375,10 285.88875,10 L281.11125,10 C276.635625,10 273,13.5942969 273,18.0343106 L273,18.0343106 Z M278.25,15.2857307 L288.75,15.2857307 L288.75,16.6071633 L278.25,16.6071633 L278.25,15.2857307 L278.25,15.2857307 Z M278.25,17.928596 L288.75,17.928596 L288.75,19.2500287 L278.25,19.2500287 L278.25,17.928596 L278.25,17.928596 Z M278.25,20.5714614 L284.8125,20.5714614 L284.8125,21.892894 L278.25,21.892894 L278.25,20.5714614 L278.25,20.5714614 Z" sketch:type="MSShapeGroup"></path>
        </g>
    </g>
</svg>