<?xml version="1.0" encoding="UTF-8" standalone="no"?>
<svg width="20px" height="20px" viewBox="0 0 20 20" version="1.1" xmlns="http://www.w3.org/2000/svg" xmlns:xlink="http://www.w3.org/1999/xlink" xmlns:sketch="http://www.bohemiancoding.com/sketch/ns">
    <!-- Generator: Sketch 3.4.2 (15855) - http://www.bohemiancoding.com/sketch -->
    <title>Shape</title>
    <desc>Created with Sketch.</desc>
    <defs></defs>
    <g id="Social-Icons" stroke="none" stroke-width="1" fill="none" fill-rule="evenodd" sketch:type="MSPage">
        <g sketch:type="MSArtboardGroup" transform="translate(-233.000000, -12.000000)" id="linkedin" fill="#117B7B">
            <g sketch:type="MSLayerGroup" transform="translate(233.000000, 12.000000)">
                <path d="M0.504468485,6.41311307 L4.40263405,6.41311307 L4.40263405,19.9987194 L0.504468485,19.9987194 L0.504468485,6.41311307 Z M2.35418627,4.71379178 L2.32596425,4.71379178 C0.914863594,4.71379178 -3.55271368e-15,3.67524651 -3.55271368e-15,2.36009732 C-3.55271368e-15,1.01805609 0.94190969,0 2.38123236,0 C3.81937912,0 4.70366886,1.01549494 4.73189087,2.3562556 C4.73189087,3.67140479 3.81937912,4.71379178 2.35418627,4.71379178 L2.35418627,4.71379178 Z M20,20 L15.5797272,20 L15.5797272,12.9683698 C15.5797272,11.1281854 14.8882879,9.8732232 13.3678269,9.8732232 C12.2048448,9.8732232 11.5580903,10.7196824 11.2570555,11.537969 C11.1441675,11.8299398 11.1618062,12.2384428 11.1618062,12.6482264 L11.1618062,20 L6.7826905,20 C6.7826905,20 6.83913452,7.54514022 6.7826905,6.41311307 L11.1618062,6.41311307 L11.1618062,8.54526828 C11.420508,7.61301063 12.8198495,6.28249456 15.0529163,6.28249456 C17.8233772,6.28249456 20,8.23793059 20,12.4446152 L20,20 L20,20 Z" id="Shape" sketch:type="MSShapeGroup"></path>
            </g>
        </g>
    </g>
</svg>