<?xml version="1.0" encoding="UTF-8" standalone="no"?>
<svg width="22px" height="16px" viewBox="0 0 22 16" version="1.1" xmlns="http://www.w3.org/2000/svg" xmlns:xlink="http://www.w3.org/1999/xlink" xmlns:sketch="http://www.bohemiancoding.com/sketch/ns">
    <!-- Generator: Sketch 3.4.2 (15855) - http://www.bohemiancoding.com/sketch -->
    <title>Shape</title>
    <desc>Created with Sketch.</desc>
    <defs></defs>
    <g id="Social-Icons" stroke="none" stroke-width="1" fill="none" fill-rule="evenodd" sketch:type="MSPage">
        <g sketch:type="MSArtboardGroup" transform="translate(-191.000000, -11.000000)" id="mail" fill="#117B7B">
            <g sketch:type="MSLayerGroup" transform="translate(180.000000, 11.000000)">
                <path d="M13.1115479,4.93191764 C13.389863,5.11365657 14.228726,5.65357323 15.6282877,6.55124919 C17.0278493,7.44892515 18.0999726,8.1401747 18.8448082,8.62485834 C18.9266301,8.6779992 19.1005205,8.79348641 19.3664795,8.97145946 C19.6324384,9.14957198 19.8534932,9.29365204 20.0293425,9.40342068 C20.2053425,9.51318932 20.4181096,9.63634779 20.6677945,9.77261712 C20.9174795,9.90888645 21.1528493,10.0112628 21.3737534,10.0791882 C21.5948082,10.1475321 21.7994384,10.1814251 21.9876438,10.1814251 L22,10.1814251 L22.0123562,10.1814251 C22.2005616,10.1814251 22.4051918,10.1475321 22.6262466,10.0791882 C22.8471507,10.0112628 23.0826712,9.90874697 23.3322055,9.77261712 C23.5817397,9.63620831 23.7945068,9.51318932 23.9705068,9.40342068 C24.1465068,9.29365204 24.367411,9.14957198 24.6333699,8.97145946 C24.8993288,8.79334693 25.0733699,8.6779992 25.1551918,8.62485834 C25.9080137,8.14003522 27.8233699,6.90900849 30.9006575,4.93163868 C31.4981233,4.54542602 31.9971918,4.07943233 32.3983151,3.53393657 C32.799589,2.98871977 33,2.41672333 33,1.8182262 C33,1.31820005 32.8054658,0.890144185 32.4166986,0.534058615 C32.0279315,0.177973046 31.5674384,0 31.0356712,0 L12.9641781,0 C12.3340137,0 11.8491096,0.19694196 11.5094658,0.59082588 C11.1698219,0.984849277 11,1.47734365 11,2.06816953 C11,2.54546089 11.2251233,3.06264275 11.6752192,3.61943616 C12.1253151,4.17622958 12.6041918,4.6137699 13.1115479,4.93191764 Z M31.7722192,6.14774134 C29.0879178,7.82941925 27.0497534,9.13632163 25.6586301,10.0681695 C25.1921096,10.3863173 24.813589,10.6345869 24.5229178,10.8124205 C24.2323973,10.990533 23.8457397,11.1722719 23.3627945,11.3579162 C22.88,11.5435605 22.4299041,11.6363129 22.0125068,11.6363129 L22,11.6363129 L21.9876438,11.6363129 C21.5702466,11.6363129 21.12,11.5435605 20.6372055,11.3579162 C20.154411,11.1722719 19.7676027,10.990533 19.4770822,10.8124205 C19.1865616,10.6345869 18.8080411,10.3863173 18.3415205,10.0681695 C17.2365479,9.31820005 15.2027534,8.01129766 12.2399863,6.14774134 C11.7734658,5.85999965 11.360137,5.53027529 11,5.15912617 L11,14.1816343 C11,14.6818 11.192274,15.1097163 11.5769726,15.4658019 C11.9616712,15.822027 12.4241233,16 12.9643288,16 L31.0358219,16 C31.5758767,16 32.0383288,15.822027 32.4230274,15.4658019 C32.8078767,15.1095769 33,14.6818 33,14.1816343 L33,5.15912617 C32.648,5.52260404 32.2388904,5.8523284 31.7722192,6.14774134 Z" id="Shape" sketch:type="MSShapeGroup"></path>
            </g>
        </g>
    </g>
</svg>