<?xml version="1.0" encoding="UTF-8" standalone="no"?>
<svg width="22px" height="22px" viewBox="0 0 22 22" version="1.1" xmlns="http://www.w3.org/2000/svg" xmlns:xlink="http://www.w3.org/1999/xlink" xmlns:sketch="http://www.bohemiancoding.com/sketch/ns">
    <!-- Generator: Sketch 3.4.2 (15855) - http://www.bohemiancoding.com/sketch -->
    <title>Shape</title>
    <desc>Created with Sketch.</desc>
    <defs></defs>
    <g id="Social-Icons" stroke="none" stroke-width="1" fill="none" fill-rule="evenodd" sketch:type="MSPage">
        <g sketch:type="MSArtboardGroup" transform="translate(-153.000000, -10.000000)" id="phone" fill="#117B7B">
            <g sketch:type="MSLayerGroup" transform="translate(120.000000, 10.000000)">
                <path d="M49.1333333,13.2 C47.6666667,14.6666667 47.6666667,16.1333333 46.2,16.1333333 C44.7333333,16.1333333 43.2666667,14.6666667 41.8,13.2 C40.3333333,11.7333333 38.8666667,10.2666667 38.8666667,8.8 C38.8666667,7.33333333 40.3333333,7.33333333 41.8,5.86666667 C43.2666667,4.4 38.8666667,0 37.4,0 C35.9333333,0 33,4.4 33,4.4 C33,7.33333333 36.014,13.2806667 38.8666667,16.1333333 C41.7178667,18.986 47.6666667,22 50.6,22 C50.6,22 55,19.0666667 55,17.6 C55,16.1333333 50.6,11.7333333 49.1333333,13.2" id="Shape" sketch:type="MSShapeGroup"></path>
            </g>
        </g>
    </g>
</svg>