<?xml version="1.0" encoding="UTF-8" standalone="no"?>
<svg width="314px" height="141px" viewBox="0 0 314 141" version="1.1" xmlns="http://www.w3.org/2000/svg" xmlns:xlink="http://www.w3.org/1999/xlink" xmlns:sketch="http://www.bohemiancoding.com/sketch/ns">
    <!-- Generator: Sketch 3.4.2 (15855) - http://www.bohemiancoding.com/sketch -->
    <title>Custom Preset</title>
    <desc>Created with Sketch.</desc>
    <defs></defs>
    <g id="Page-1" stroke="none" stroke-width="1" fill="none" fill-rule="evenodd" sketch:type="MSPage">
        <g id="Custom-Preset" sketch:type="MSArtboardGroup">
            <g id="smart-logo" sketch:type="MSLayerGroup">
                <g id="smart-tooth" sketch:type="MSShapeGroup">
                    <g id="noun_244249_cc" transform="translate(0.000000, 33.157895)" fill="#B7BFD4">
                        <g id="Group">
                            <path d="M53.6364646,3.23763955 C44.9510655,1.50737162 34.2390756,0 24.6851366,0 C11.0780112,0 0.0765056022,10.9583636 0.0765056022,24.5121291 C0.0765056022,30.1354999 3.98493522,37.6333276 6.44579832,41.2380525 C6.59055497,41.5264305 7.31433824,43.4008874 8.61714811,55.5127629 C11.2227679,77.1411121 14.8416842,106.699856 30.4754027,106.699856 C43.6482581,106.699856 46.9776611,91.1274446 49.4385242,79.880703 C50.1623074,76.4201672 52.0441439,67.0478825 53.6364671,66.3269375 C55.6630602,66.3269375 57.83441,76.5643562 58.8477066,80.890026 L58.9924632,81.322593 C61.7428396,93.2902795 64.7827293,106.699856 76.7975315,106.699856 C92.86552,106.699856 96.194923,76.8527341 98.8005427,55.080196 C99.2348127,50.8987151 100.248109,42.3915644 100.682379,41.3822415 C100.682379,41.2380525 107.196429,30.8564449 107.196429,24.6563181 C107.196429,10.9583636 96.194923,0 82.5877976,0 C73.0338585,0 62.3218638,1.50737162 53.6364646,3.23763955 Z M22.6594268,6.4232695 C26.2442967,6.4232695 28.7146676,6.56656646 32.4809549,6.83813863 C38.979728,7.3067396 46.7674037,9.45243414 52.2765744,10.6077113 L52.8872372,10.7597784 C53.7731426,10.9803862 58.4789698,9.37242277 62.8786809,8.80136128 C65.259357,8.4923609 69.4820981,6.92330758 73.6052245,6.72828141 C77.6196248,6.53839803 81.5395947,7.71843764 83.5730448,7.71843764 C92.885653,7.71843764 100.366273,15.1697224 100.366273,24.4458116 C100.366273,26.5747501 97.4656243,32.9615656 95.0229729,37.3715097 C93.4963158,39.9566493 92.885653,44.5186604 91.6643273,55.9236881 C90.1376702,68.393185 86.1683618,101 77.6190821,101 C72.5811137,101 68.2911281,93.636313 65.695811,81.9271512 L65.5431453,81.4709501 C62.9478282,70.0659224 62.6578426,59.4212299 53.1925686,59.4212299 C44.3379575,59.4212299 45.0479719,70.2179895 42.7579862,80.862682 C40.1626692,92.8759778 34.6418788,100.962221 28.7660552,100 C22.6594269,98.9999831 16.4001327,68.6973191 14.8734756,56.0757551 L14.8734756,55.771621 C13.4994842,44.2145263 12.8888214,39.5004482 11.0568329,37.0673756 C8.91951297,33.8739678 5.86619878,27.4871523 5.86619878,24.4458116 C5.86619878,15.1697224 13.3468185,6.4232695 22.6594268,6.4232695 Z" id="Shape"></path>
                        </g>
                    </g>
                    <g id="Group" transform="translate(97.360561, 43.464647) rotate(-357.000000) translate(-97.360561, -43.464647) translate(58.860561, 2.464647)">
                        <path d="M17.1898853,15.6448575 C18.3579118,13.1400164 21.3307407,12.0541605 23.8425427,13.225433 L52.6986058,26.6812362 C55.2047405,27.849866 56.2875406,30.8319862 55.1214649,33.3326435 L45.2246337,54.5564666 C44.0566071,57.0613077 40.9124412,58.6668084 38.2028388,58.117629 C38.2028388,58.117629 27.1140603,56.1129509 22.4276102,53.9276233 C18.1879029,51.9506153 9.09353683,44.5136497 9.09353683,44.5136497 C6.93113109,42.7962909 6.1269784,39.3693378 7.29305406,36.8686805 L17.1898853,15.6448575 Z" id="Rectangle-1" stroke="#B7BFD4" stroke-width="6" fill="#B7BFD4"></path>
                        <path d="M0.0387485175,3.72135404 L46.143713,0.880185026 L76.3578989,33.1191444 L31.9379491,39.1381987 L0.0387485175,3.72135404 Z" id="Rectangle-2" stroke="#29385E" fill="#B7BFD4"></path>
                        <path d="M43.125,15.9649123 L56.6785714,31.9298246 L58.764327,71.5166205" id="Path-3" stroke="#B7BFD4" stroke-width="4"></path>
                        <polygon id="Triangle-7" fill="#B7BFD4" points="58.9285714 61 63.8571429 81.877193 54 81.877193 "></polygon>
                    </g>
                </g>
                <path d="M165.860352,45.9433594 L161.640625,45.9433594 L160.592773,40.0527344 C159.74316,39.3352829 158.610359,38.7405623 157.194336,38.2685547 C155.778313,37.7965471 154.135752,37.5605469 152.266602,37.5605469 C149.302394,37.5605469 147.027352,38.1883075 145.441406,39.4438477 C143.855461,40.6993878 143.0625,42.3372295 143.0625,44.3574219 C143.0625,46.1510506 143.869621,47.6472922 145.483887,48.8461914 C147.098153,50.0450906 149.708315,51.0976517 153.314453,52.0039062 C157.656923,53.0800835 160.956206,54.6660051 163.212402,56.7617188 C165.468599,58.8574324 166.59668,61.453435 166.59668,64.5498047 C166.59668,67.872738 165.242038,70.5442607 162.532715,72.5644531 C159.823391,74.5846455 156.278668,75.5947266 151.898438,75.5947266 C148.726547,75.5947266 145.908704,75.075526 143.444824,74.0371094 C140.980945,72.9986927 138.974943,71.6393313 137.426758,69.9589844 L137.426758,62.2841797 L141.618164,62.2841797 L142.694336,68.203125 C143.770513,69.0904992 145.054355,69.81738 146.545898,70.3837891 C148.037442,70.9501981 149.821604,71.2333984 151.898438,71.2333984 C154.711603,71.2333984 156.934725,70.6386778 158.567871,69.4492188 C160.201017,68.2597597 161.017578,66.645518 161.017578,64.6064453 C161.017578,62.718415 160.309577,61.1372134 158.893555,59.862793 C157.477532,58.5883725 154.975929,57.5169314 151.388672,56.6484375 C147.027322,55.6100208 143.619478,54.0807393 141.165039,52.0605469 C138.7106,50.0403545 137.483398,47.5009919 137.483398,44.4423828 C137.483398,41.213851 138.8522,38.5281683 141.589844,36.3852539 C144.327488,34.2423395 147.886371,33.1708984 152.266602,33.1708984 C155.155288,33.1708984 157.784331,33.666499 160.153809,34.6577148 C162.523287,35.6489307 164.425449,36.852532 165.860352,38.2685547 L165.860352,45.9433594 Z M170.731445,71.4316406 L175.347656,70.6386719 L175.347656,48.7470703 L170.731445,47.9541016 L170.731445,44.3574219 L180.360352,44.3574219 L180.728516,48.3505859 C181.710291,46.8968026 182.975253,45.7734415 184.523438,44.9804688 C186.071622,44.187496 187.865224,43.7910156 189.904297,43.7910156 C191.94337,43.7910156 193.694491,44.2630161 195.157715,45.2070312 C196.620938,46.1510464 197.720699,47.5670479 198.457031,49.4550781 C199.419927,47.7180903 200.694328,46.3398488 202.280273,45.3203125 C203.866219,44.3007762 205.716461,43.7910156 207.831055,43.7910156 C210.965185,43.7910156 213.438468,44.8624567 215.250977,47.0053711 C217.063486,49.1482855 217.969727,52.3720488 217.969727,56.6767578 L217.969727,70.6386719 L222.585938,71.4316406 L222.585938,75 L207.746094,75 L207.746094,71.4316406 L212.362305,70.6386719 L212.362305,56.6201172 C212.362305,53.5992687 211.843104,51.4611065 210.804688,50.2055664 C209.766271,48.9500263 208.227549,48.3222656 206.188477,48.3222656 C204.243805,48.3222656 202.681484,49.0066663 201.501465,50.3754883 C200.321446,51.7443102 199.637045,53.467112 199.448242,55.5439453 L199.448242,70.6386719 L204.064453,71.4316406 L204.064453,75 L189.25293,75 L189.25293,71.4316406 L193.869141,70.6386719 L193.869141,56.6201172 C193.869141,53.7503112 193.33578,51.649909 192.269043,50.3188477 C191.202306,48.9877863 189.658864,48.3222656 187.638672,48.3222656 C185.939445,48.3222656 184.542323,48.671546 183.447266,49.3701172 C182.352208,50.0686884 181.512047,51.0504494 180.926758,52.3154297 L180.926758,70.6386719 L185.542969,71.4316406 L185.542969,75 L170.731445,75 L170.731445,71.4316406 Z M246.629883,75 C246.45996,74.1692667 246.3278,73.4235059 246.233398,72.7626953 C246.138997,72.1018847 246.072917,71.441084 246.035156,70.7802734 C244.958979,72.1585355 243.613778,73.3054967 241.999512,74.2211914 C240.385246,75.1368861 238.662444,75.5947266 236.831055,75.5947266 C233.640284,75.5947266 231.214201,74.8159258 229.552734,73.2583008 C227.891268,71.7006758 227.060547,69.5058735 227.060547,66.6738281 C227.060547,63.7662615 228.235828,61.5242592 230.586426,59.9477539 C232.937023,58.3712486 236.160787,57.5830078 240.257812,57.5830078 L246.006836,57.5830078 L246.006836,54.0146484 C246.006836,52.2210197 245.440435,50.8002982 244.307617,49.7524414 C243.174799,48.7045846 241.598317,48.1806641 239.578125,48.1806641 C238.180983,48.1806641 236.949061,48.3600242 235.882324,48.71875 C234.815587,49.0774758 233.951826,49.5683563 233.291016,50.1914062 L232.696289,53.4199219 L228.391602,53.4199219 L228.391602,47.4726562 C229.788744,46.3587184 231.478506,45.4666375 233.460938,44.7963867 C235.443369,44.126136 237.595692,43.7910156 239.917969,43.7910156 C243.391944,43.7910156 246.205067,44.6783765 248.357422,46.453125 C250.509776,48.2278735 251.585938,50.7672361 251.585938,54.0712891 L251.585938,68.8261719 C251.585938,69.2226582 251.590658,69.6096986 251.600098,69.9873047 C251.609538,70.3649107 251.633138,70.7425111 251.670898,71.1201172 L253.936523,71.4316406 L253.936523,75 L246.629883,75 Z M237.652344,70.921875 C239.502613,70.921875 241.192375,70.4781945 242.72168,69.5908203 C244.250984,68.7034461 245.346025,67.636725 246.006836,66.390625 L246.006836,61.3496094 L240.05957,61.3496094 C237.775054,61.3496094 235.967292,61.8782499 234.63623,62.9355469 C233.305169,63.9928438 232.639648,65.2766852 232.639648,66.7871094 C232.639648,68.1276109 233.055009,69.1518519 233.885742,69.8598633 C234.716476,70.5678746 235.971997,70.921875 237.652344,70.921875 L237.652344,70.921875 Z M258.581055,47.9541016 L258.581055,44.3574219 L268.181641,44.3574219 L268.719727,48.8037109 C269.58822,47.2366458 270.659662,46.0094445 271.934082,45.1220703 C273.208502,44.2346961 274.666984,43.7910156 276.30957,43.7910156 C276.743817,43.7910156 277.192218,43.8240557 277.654785,43.8901367 C278.117353,43.9562178 278.471353,44.0270179 278.716797,44.1025391 L277.980469,49.2851562 L274.808594,49.1152344 C273.33593,49.1152344 272.099289,49.4597947 271.098633,50.1489258 C270.097977,50.8380568 269.323896,51.8056578 268.776367,53.0517578 L268.776367,70.6386719 L273.392578,71.4316406 L273.392578,75 L258.581055,75 L258.581055,71.4316406 L263.197266,70.6386719 L263.197266,48.7470703 L258.581055,47.9541016 Z M293.216797,36.9658203 L293.216797,44.3574219 L299.022461,44.3574219 L299.022461,48.4921875 L293.216797,48.4921875 L293.216797,67.0986328 C293.216797,68.5335358 293.514157,69.5436169 294.108887,70.1289062 C294.703616,70.7141956 295.491857,71.0068359 296.473633,71.0068359 C296.964521,71.0068359 297.516761,70.9643559 298.130371,70.8793945 C298.743981,70.7944332 299.258461,70.7047531 299.673828,70.6103516 L300.438477,74.4335938 C299.909828,74.7734392 299.135747,75.0519195 298.116211,75.269043 C297.096675,75.4861665 296.077154,75.5947266 295.057617,75.5947266 C292.791981,75.5947266 290.988939,74.9103259 289.648438,73.5415039 C288.307936,72.172682 287.637695,70.0250797 287.637695,67.0986328 L287.637695,48.4921875 L282.794922,48.4921875 L282.794922,44.3574219 L287.637695,44.3574219 L287.637695,36.9658203 L293.216797,36.9658203 Z M153.286133,93.765625 C158.667019,93.765625 162.995264,95.4223467 166.270996,98.7358398 C169.546729,102.049333 171.18457,106.330377 171.18457,111.579102 L171.18457,117.214844 C171.18457,122.482448 169.546729,126.763493 166.270996,130.058105 C162.995264,133.352718 158.667019,135 153.286133,135 L136.010742,135 L136.010742,131.431641 L140.626953,130.638672 L140.626953,98.1552734 L136.010742,97.3623047 L136.010742,93.765625 L140.626953,93.765625 L153.286133,93.765625 Z M146.206055,98.1552734 L146.206055,130.638672 L153.286133,130.638672 C157.099954,130.638672 160.106597,129.383151 162.306152,126.87207 C164.505708,124.36099 165.605469,121.141947 165.605469,117.214844 L165.605469,111.522461 C165.605469,107.633119 164.505708,104.432955 162.306152,101.921875 C160.106597,99.4107947 157.099954,98.1552734 153.286133,98.1552734 L146.206055,98.1552734 Z M190.697266,135.594727 C186.430317,135.594727 183.036634,134.174005 180.516113,131.33252 C177.995593,128.491034 176.735352,124.80471 176.735352,120.273438 L176.735352,119.027344 C176.735352,114.665994 178.033353,111.03631 180.629395,108.138184 C183.225436,105.240057 186.298159,103.791016 189.847656,103.791016 C193.963562,103.791016 197.083485,105.037097 199.20752,107.529297 C201.331554,110.021497 202.393555,113.34438 202.393555,117.498047 L202.393555,120.981445 L182.512695,120.981445 L182.427734,121.123047 C182.484375,124.068374 183.230136,126.489737 184.665039,128.387207 C186.099942,130.284677 188.110664,131.233398 190.697266,131.233398 C192.585296,131.233398 194.242018,130.964358 195.66748,130.42627 C197.092943,129.888181 198.324865,129.14714 199.363281,128.203125 L201.543945,131.828125 C200.448888,132.885422 198.999846,133.777503 197.196777,134.504395 C195.393708,135.231286 193.227226,135.594727 190.697266,135.594727 L190.697266,135.594727 Z M189.847656,108.180664 C187.978506,108.180664 186.383145,108.968905 185.061523,110.54541 C183.739902,112.121915 182.928061,114.099597 182.625977,116.478516 L182.682617,116.620117 L196.814453,116.620117 L196.814453,115.883789 C196.814453,113.693674 196.229173,111.862312 195.058594,110.389648 C193.888015,108.916985 192.151053,108.180664 189.847656,108.180664 L189.847656,108.180664 Z M207.066406,131.431641 L211.682617,130.638672 L211.682617,108.74707 L207.066406,107.954102 L207.066406,104.357422 L216.666992,104.357422 L217.063477,108.916992 C218.083013,107.293286 219.362134,106.033045 220.900879,105.13623 C222.439624,104.239416 224.190745,103.791016 226.154297,103.791016 C229.45835,103.791016 232.016593,104.758617 233.829102,106.693848 C235.641611,108.629079 236.547852,111.616842 236.547852,115.657227 L236.547852,130.638672 L241.164062,131.431641 L241.164062,135 L226.352539,135 L226.352539,131.431641 L230.96875,130.638672 L230.96875,115.770508 C230.96875,113.070625 230.435389,111.154303 229.368652,110.021484 C228.301915,108.888666 226.673514,108.322266 224.483398,108.322266 C222.878573,108.322266 221.457851,108.709306 220.221191,109.483398 C218.984532,110.257491 217.998051,111.314772 217.261719,112.655273 L217.261719,130.638672 L221.87793,131.431641 L221.87793,135 L207.066406,135 L207.066406,131.431641 Z M254.956055,96.9658203 L254.956055,104.357422 L260.761719,104.357422 L260.761719,108.492188 L254.956055,108.492188 L254.956055,127.098633 C254.956055,128.533536 255.253415,129.543617 255.848145,130.128906 C256.442874,130.714196 257.231115,131.006836 258.212891,131.006836 C258.703778,131.006836 259.256019,130.964356 259.869629,130.879395 C260.483239,130.794433 260.997719,130.704753 261.413086,130.610352 L262.177734,134.433594 C261.649086,134.773439 260.875005,135.051919 259.855469,135.269043 C258.835932,135.486166 257.816411,135.594727 256.796875,135.594727 C254.531239,135.594727 252.728197,134.910326 251.387695,133.541504 C250.047194,132.172682 249.376953,130.02508 249.376953,127.098633 L249.376953,108.492188 L244.53418,108.492188 L244.53418,104.357422 L249.376953,104.357422 L249.376953,96.9658203 L254.956055,96.9658203 Z M286.448242,135 C286.278319,134.169267 286.146159,133.423506 286.051758,132.762695 C285.957356,132.101885 285.891276,131.441084 285.853516,130.780273 C284.777338,132.158536 283.432137,133.305497 281.817871,134.221191 C280.203605,135.136886 278.480803,135.594727 276.649414,135.594727 C273.458643,135.594727 271.03256,134.815926 269.371094,133.258301 C267.709627,131.700676 266.878906,129.505874 266.878906,126.673828 C266.878906,123.766262 268.054187,121.524259 270.404785,119.947754 C272.755383,118.371249 275.979146,117.583008 280.076172,117.583008 L285.825195,117.583008 L285.825195,114.014648 C285.825195,112.22102 285.258795,110.800298 284.125977,109.752441 C282.993158,108.704585 281.416677,108.180664 279.396484,108.180664 C277.999342,108.180664 276.767421,108.360024 275.700684,108.71875 C274.633946,109.077476 273.770186,109.568356 273.109375,110.191406 L272.514648,113.419922 L268.209961,113.419922 L268.209961,107.472656 C269.607103,106.358718 271.296865,105.466637 273.279297,104.796387 C275.261729,104.126136 277.414051,103.791016 279.736328,103.791016 C283.210304,103.791016 286.023427,104.678377 288.175781,106.453125 C290.328136,108.227873 291.404297,110.767236 291.404297,114.071289 L291.404297,128.826172 C291.404297,129.222658 291.409017,129.609699 291.418457,129.987305 C291.427897,130.364911 291.451497,130.742511 291.489258,131.120117 L293.754883,131.431641 L293.754883,135 L286.448242,135 Z M277.470703,130.921875 C279.320973,130.921875 281.010735,130.478195 282.540039,129.59082 C284.069344,128.703446 285.164385,127.636725 285.825195,126.390625 L285.825195,121.349609 L279.87793,121.349609 C277.593413,121.349609 275.785651,121.87825 274.45459,122.935547 C273.123529,123.992844 272.458008,125.276685 272.458008,126.787109 C272.458008,128.127611 272.873368,129.151852 273.704102,129.859863 C274.534835,130.567875 275.790356,130.921875 277.470703,130.921875 L277.470703,130.921875 Z M297.634766,94.4169922 L297.634766,90.8203125 L307.830078,90.8203125 L307.830078,130.638672 L312.446289,131.431641 L312.446289,135 L297.634766,135 L297.634766,131.431641 L302.250977,130.638672 L302.250977,95.2099609 L297.634766,94.4169922 Z" id="Smart" fill="#B7BFD4" sketch:type="MSShapeGroup"></path>
            </g>
        </g>
    </g>
</svg>