<?xml version="1.0" encoding="UTF-8" standalone="no"?>
<svg width="296px" height="141px" viewBox="0 0 296 141" version="1.1" xmlns="http://www.w3.org/2000/svg" xmlns:xlink="http://www.w3.org/1999/xlink" xmlns:sketch="http://www.bohemiancoding.com/sketch/ns">
    <!-- Generator: Sketch 3.4.2 (15855) - http://www.bohemiancoding.com/sketch -->
    <title>smart-logo</title>
    <desc>Created with Sketch.</desc>
    <defs></defs>
    <g id="Page-1" stroke="none" stroke-width="1" fill="none" fill-rule="evenodd" sketch:type="MSPage">
        <g id="smart-logo" sketch:type="MSArtboardGroup">
            <g sketch:type="MSLayerGroup" transform="translate(1.000000, 2.000000)">
                <g id="smart-tooth" sketch:type="MSShapeGroup">
                    <g id="noun_244249_cc" transform="translate(0.000000, 33.157895)" fill="#B7BFD4">
                        <g id="Group">
                            <path d="M53.6364646,3.23763955 C44.9510655,1.50737162 34.2390756,7.10542736e-15 24.6851366,7.10542736e-15 C11.0780112,7.10542736e-15 0.0765056022,10.9583636 0.0765056022,24.5121291 C0.0765056022,30.1354999 3.98493522,37.6333276 6.44579832,41.2380525 C6.59055497,41.5264305 7.31433824,43.4008874 8.61714811,55.5127629 C11.2227679,77.1411121 14.8416842,106.699856 30.4754027,106.699856 C43.6482581,106.699856 46.9776611,91.1274446 49.4385242,79.880703 C50.1623074,76.4201672 52.0441439,67.0478825 53.6364671,66.3269375 C55.6630602,66.3269375 57.83441,76.5643562 58.8477066,80.890026 L58.9924632,81.322593 C61.7428396,93.2902795 64.7827293,106.699856 76.7975315,106.699856 C92.86552,106.699856 96.194923,76.8527341 98.8005427,55.080196 C99.2348127,50.8987151 100.248109,42.3915644 100.682379,41.3822415 C100.682379,41.2380525 107.196429,30.8564449 107.196429,24.6563181 C107.196429,10.9583636 96.194923,7.10542736e-15 82.5877976,7.10542736e-15 C73.0338585,7.10542736e-15 62.3218638,1.50737162 53.6364646,3.23763955 Z M24.6851366,7.4232695 C28.0842874,7.4232695 30.4266773,7.55914277 33.9978469,7.81664576 C40.1599422,8.26097022 47.5441667,10.2955041 52.7679272,11.3909306 L53.3469538,11.5351196 C54.1869636,11.7442985 58.648999,10.2196378 62.820777,9.67816098 C65.078119,9.38516878 69.0820952,7.89740243 72.9916173,7.71247985 C76.7980461,7.53243364 80.5149366,8.65133968 82.443041,8.65133968 C91.2731968,8.65133968 98.3662728,15.7166004 98.3662728,24.5121291 C98.3662728,26.530775 95.6158964,32.5867128 93.2997899,36.7681936 C91.8522234,39.2194065 91.2731968,43.5450764 90.1151436,54.359251 C88.667577,66.1827485 84.9039041,98.0485164 76.7975315,98.0485164 C72.020562,98.0485164 69.8492122,90.1181216 67.3883491,79.0155691 L67.2435924,78.5830021 C64.7827293,67.7688275 62.6113796,57.6755979 53.6364671,57.6755979 C45.2405812,57.6755979 43.0692314,67.9130165 40.8978817,78.0062461 C38.4370186,89.3971767 36.1209121,98.0485164 30.4754027,98.0485164 C22.5137868,98.0485164 18.7501138,66.4711265 17.3025473,54.50344 L17.3025473,54.215062 C15.9997374,43.2566984 15.4207108,38.7868396 13.683631,36.4798156 C11.6570378,33.4518468 8.76190476,27.395909 8.76190476,24.5121291 C8.76190476,15.7166004 15.8549807,7.4232695 24.6851366,7.4232695 Z" id="Shape"></path>
                        </g>
                    </g>
                    <g id="Group" transform="translate(97.360561, 43.464647) rotate(-357.000000) translate(-97.360561, -43.464647) translate(58.860561, 2.464647)">
                        <path d="M17.1898853,15.6448575 C18.3579118,13.1400164 21.3307407,12.0541605 23.8425427,13.225433 L52.6986058,26.6812362 C55.2047405,27.849866 56.2875406,30.8319862 55.1214649,33.3326435 L45.2246337,54.5564666 C44.0566071,57.0613077 40.9124412,58.6668084 38.2028388,58.117629 C38.2028388,58.117629 27.1140603,56.1129509 22.4276102,53.9276233 C18.1879029,51.9506153 9.09353683,44.5136497 9.09353683,44.5136497 C6.93113109,42.7962909 6.1269784,39.3693378 7.29305406,36.8686805 L17.1898853,15.6448575 Z" id="Rectangle-1" stroke="#B7BFD4" stroke-width="6" fill="#B7BFD4"></path>
                        <path d="M0.0387485175,3.72135404 L46.143713,0.880185026 L76.3578989,33.1191444 L31.9379491,39.1381987 L0.0387485175,3.72135404 Z" id="Rectangle-2" stroke="#29385E" fill="#B7BFD4"></path>
                        <path d="M43.125,15.9649123 L56.6785714,31.9298246 L58.764327,71.5166205" id="Path-3" stroke="#B7BFD4" stroke-width="4"></path>
                        <polygon id="Triangle-7" fill="#B7BFD4" points="58.9285714 61 63.8571429 81.877193 54 81.877193 "></polygon>
                    </g>
                </g>
                <text id="Smart-" sketch:type="MSTextLayer" font-family="Oswald" font-size="60" font-weight="normal" line-spacing="65" fill="#B7BFD4">
                    <tspan x="138" y="73">Smart </tspan>
                    <tspan x="138" y="138">Dental</tspan>
                </text>
            </g>
        </g>
    </g>
</svg>