<?xml version="1.0" encoding="UTF-8" standalone="no"?>
<svg width="288px" height="137px" viewBox="0 0 288 137" version="1.1" xmlns="http://www.w3.org/2000/svg" xmlns:xlink="http://www.w3.org/1999/xlink" xmlns:sketch="http://www.bohemiancoding.com/sketch/ns">
    <!-- Generator: Sketch 3.4.2 (15855) - http://www.bohemiancoding.com/sketch -->
    <title>smart-logo</title>
    <desc>Created with Sketch.</desc>
    <defs></defs>
    <g id="Page-1" stroke="none" stroke-width="1" fill="none" fill-rule="evenodd" sketch:type="MSPage">
        <g id="Wireframe" sketch:type="MSArtboardGroup" transform="translate(-96.000000, -69.000000)">
            <g id="smart-logo" sketch:type="MSLayerGroup" transform="translate(96.000000, 66.000000)">
                <g id="smart-tooth" sketch:type="MSShapeGroup">
                    <g id="noun_244249_cc" transform="translate(0.000000, 33.157895)" fill="#B7BFD4">
                        <g id="Group">
                            <path d="M53.6364646,3.23763955 C44.9510655,1.50737162 34.2390756,7.10542736e-15 24.6851366,7.10542736e-15 C11.0780112,7.10542736e-15 0.0765056022,10.9583636 0.0765056022,24.5121291 C0.0765056022,30.1354999 3.98493522,37.6333276 6.44579832,41.2380525 C6.59055497,41.5264305 7.31433824,43.4008874 8.61714811,55.5127629 C11.2227679,77.1411121 14.8416842,106.699856 30.4754027,106.699856 C43.6482581,106.699856 46.9776611,91.1274446 49.4385242,79.880703 C50.1623074,76.4201672 52.0441439,67.0478825 53.6364671,66.3269375 C55.6630602,66.3269375 57.83441,76.5643562 58.8477066,80.890026 L58.9924632,81.322593 C61.7428396,93.2902795 64.7827293,106.699856 76.7975315,106.699856 C92.86552,106.699856 96.194923,76.8527341 98.8005427,55.080196 C99.2348127,50.8987151 100.248109,42.3915644 100.682379,41.3822415 C100.682379,41.2380525 107.196429,30.8564449 107.196429,24.6563181 C107.196429,10.9583636 96.194923,7.10542736e-15 82.5877976,7.10542736e-15 C73.0338585,7.10542736e-15 62.3218638,1.50737162 53.6364646,3.23763955 Z M24.6851366,7.4232695 C28.0842874,7.4232695 30.4266773,7.55914277 33.9978469,7.81664576 C40.1599422,8.26097022 47.5441667,10.2955041 52.7679272,11.3909306 L53.3469538,11.5351196 C54.1869636,11.7442985 58.648999,10.2196378 62.820777,9.67816098 C65.078119,9.38516878 69.0820952,7.89740243 72.9916173,7.71247985 C76.7980461,7.53243364 80.5149366,8.65133968 82.443041,8.65133968 C91.2731968,8.65133968 98.3662728,15.7166004 98.3662728,24.5121291 C98.3662728,26.530775 95.6158964,32.5867128 93.2997899,36.7681936 C91.8522234,39.2194065 91.2731968,43.5450764 90.1151436,54.359251 C88.667577,66.1827485 84.9039041,98.0485164 76.7975315,98.0485164 C72.020562,98.0485164 69.8492122,90.1181216 67.3883491,79.0155691 L67.2435924,78.5830021 C64.7827293,67.7688275 62.6113796,57.6755979 53.6364671,57.6755979 C45.2405812,57.6755979 43.0692314,67.9130165 40.8978817,78.0062461 C38.4370186,89.3971767 36.1209121,98.0485164 30.4754027,98.0485164 C22.5137868,98.0485164 18.7501138,66.4711265 17.3025473,54.50344 L17.3025473,54.215062 C15.9997374,43.2566984 15.4207108,38.7868396 13.683631,36.4798156 C11.6570378,33.4518468 8.76190476,27.395909 8.76190476,24.5121291 C8.76190476,15.7166004 15.8549807,7.4232695 24.6851366,7.4232695 Z" id="Shape"></path>
                        </g>
                    </g>
                    <g id="Group" transform="translate(97.360561, 43.464647) rotate(-357.000000) translate(-97.360561, -43.464647) translate(58.860561, 2.464647)">
                        <path d="M17.1898853,15.6448575 C18.3579118,13.1400164 21.3307407,12.0541605 23.8425427,13.225433 L52.6986058,26.6812362 C55.2047405,27.849866 56.2875406,30.8319862 55.1214649,33.3326435 L45.2246337,54.5564666 C44.0566071,57.0613077 40.9124412,58.6668084 38.2028388,58.117629 C38.2028388,58.117629 27.1140603,56.1129509 22.4276102,53.9276233 C18.1879029,51.9506153 9.09353683,44.5136497 9.09353683,44.5136497 C6.93113109,42.7962909 6.1269784,39.3693378 7.29305406,36.8686805 L17.1898853,15.6448575 Z" id="Rectangle-1" stroke="#B7BFD4" stroke-width="6" fill="#B7BFD4"></path>
                        <path d="M0.0387485175,3.72135404 L46.143713,0.880185026 L76.3578989,33.1191444 L31.9379491,39.1381987 L0.0387485175,3.72135404 Z" id="Rectangle-2" stroke="#29385E" fill="#B7BFD4"></path>
                        <path d="M43.125,15.9649123 L56.6785714,31.9298246 L58.764327,71.5166205" id="Path-3" stroke="#B7BFD4" stroke-width="4"></path>
                        <polygon id="Triangle-7" fill="#B7BFD4" points="58.9285714 61 63.8571429 81.877193 54 81.877193 "></polygon>
                    </g>
                </g>
                <path d="M155.431641,73.5273438 C150.705054,73.5273438 147.096692,72.1406389 144.606445,69.3671875 C142.116198,66.5937361 140.724611,62.8047115 140.431641,58 L147.931641,56.125 C148.302736,63.6250375 150.802711,67.375 155.431641,67.375 C159.181659,67.375 161.056641,65.5000187 161.056641,61.75 C161.056641,60.6367132 160.905275,59.60645 160.602539,58.6591797 C160.299803,57.7119093 159.835941,56.8427774 159.210938,56.0517578 C158.585934,55.2607382 158.019534,54.625979 157.511719,54.1474609 C157.003904,53.6689429 156.310551,53.0781285 155.431641,52.375 L146.056641,44.875 C144.337882,43.527337 142.965825,41.813487 141.94043,39.7333984 C140.915034,37.6533099 140.402344,35.2851695 140.402344,32.6289062 C140.402344,28.7616994 141.603504,25.6855583 144.005859,23.4003906 C146.408215,21.1152229 149.591777,19.9726562 153.556641,19.9726562 C157.814474,19.9726562 161.19823,21.0126849 163.708008,23.0927734 C166.217786,25.172862 167.765622,28.1171685 168.351562,31.9257812 C168.410157,32.3359396 168.478515,32.9023401 168.556641,33.625 L161.056641,35.5 C161.037109,35.1679671 160.988282,34.6699252 160.910156,34.0058594 C160.578123,31.623035 159.83106,29.7138744 158.668945,28.2783203 C157.50683,26.8427663 155.802746,26.125 153.556641,26.125 C151.759757,26.125 150.373052,26.6279247 149.396484,27.6337891 C148.419917,28.6396535 147.931641,30.0410066 147.931641,31.8378906 C147.931641,34.7871241 149.181628,37.2578025 151.681641,39.25 L161.056641,46.75 C166.056666,50.792989 168.556641,55.626925 168.556641,61.2519531 C168.556641,65.0996286 167.370129,68.107411 164.99707,70.2753906 C162.624012,72.4433702 159.435567,73.5273438 155.431641,73.5273438 L155.431641,73.5273438 Z M173.712891,73 L173.712891,35.5 L181.212891,35.5 L181.212891,39.7480469 C183.888685,36.5644372 187.003888,34.9726562 190.558594,34.9726562 C192.355478,34.9726562 193.673824,35.3681601 194.513672,36.1591797 C195.35352,36.9501993 195.91992,38.2050695 196.212891,39.9238281 C197.443366,38.3027263 198.771477,37.0722698 200.197266,36.2324219 C201.623054,35.3925739 203.419911,34.9726562 205.587891,34.9726562 C206.212894,34.9726562 206.774412,35.0361322 207.272461,35.1630859 C207.77051,35.2900397 208.205076,35.4414054 208.576172,35.6171875 C208.947267,35.7929696 209.274413,36.0615216 209.557617,36.4228516 C209.840822,36.7841815 210.075194,37.1162094 210.260742,37.4189453 C210.44629,37.7216812 210.602538,38.1562472 210.729492,38.7226562 C210.856446,39.2890653 210.949218,39.7578106 211.007812,40.1289062 C211.066407,40.5000019 211.115234,41.0468714 211.154297,41.7695312 C211.19336,42.4921911 211.212891,43.0585917 211.212891,43.46875 L211.212891,45.3144531 L211.212891,45.7246094 L211.212891,73 L203.712891,73 L203.712891,45.6367188 L203.712891,45.1679688 C203.712891,44.5234343 203.703125,44.0253924 203.683594,43.6738281 C203.664062,43.3222639 203.600586,42.9169945 203.493164,42.4580078 C203.385742,41.9990211 203.195314,41.6621104 202.921875,41.4472656 C202.648436,41.2324208 202.287112,41.125 201.837891,41.125 C201.076168,41.125 200.314457,41.2763657 199.552734,41.5791016 C198.791012,41.8818375 198.200197,42.1748033 197.780273,42.4580078 C197.360349,42.7412124 196.837894,43.1367162 196.212891,43.6445312 L196.212891,73 L188.712891,73 L188.712891,45.7832031 L188.712891,45.2558594 L188.712891,44.0253906 C188.712891,43.7519518 188.678711,43.39551 188.610352,42.9560547 C188.541992,42.5165994 188.449219,42.1894542 188.332031,41.9746094 C188.214843,41.7597646 188.029298,41.564454 187.775391,41.3886719 C187.521483,41.2128897 187.208986,41.125 186.837891,41.125 C185.001944,41.125 183.126963,41.9160077 181.212891,43.4980469 L181.212891,73 L173.712891,73 Z M228.058594,67.375 C228.58594,67.375 229.09863,67.2187516 229.59668,66.90625 C230.094729,66.5937484 230.470702,66.2910171 230.724609,65.9980469 C230.978517,65.7050767 231.291014,65.3144556 231.662109,64.8261719 C231.720703,64.7285151 231.769531,64.6601564 231.808594,64.6210938 L231.808594,54.25 C231.496092,54.4648448 230.978519,54.7968728 230.255859,55.2460938 C229.5332,55.6953147 228.957033,56.061522 228.527344,56.3447266 C228.097654,56.6279311 227.580081,57.0185522 226.974609,57.5166016 C226.369138,58.0146509 225.900392,58.4931618 225.568359,58.9521484 C225.236326,59.4111351 224.943361,59.9726529 224.689453,60.6367188 C224.435546,61.3007846 224.308594,61.994137 224.308594,62.7167969 C224.308594,65.8222812 225.558581,67.375 228.058594,67.375 L228.058594,67.375 Z M224.308594,73.5273438 C222.21874,73.5273438 220.446296,72.6240325 218.991211,70.8173828 C217.536126,69.0107332 216.808594,66.9746207 216.808594,64.7089844 C216.808594,62.892569 217.116208,61.2421949 217.731445,59.7578125 C218.346683,58.2734301 218.99609,57.0869185 219.679688,56.1982422 C220.363285,55.3095659 221.505851,54.3916063 223.107422,53.4443359 C224.708992,52.4970656 225.919918,51.847658 226.740234,51.4960938 C227.560551,51.1445295 228.986318,50.5683634 231.017578,49.7675781 C231.369142,49.6308587 231.632812,49.5234379 231.808594,49.4453125 L231.808594,46.75 C231.808594,44.8554593 231.544925,43.3857474 231.017578,42.3408203 C230.490232,41.2958932 229.503913,40.7734375 228.058594,40.7734375 C226.769525,40.7734375 225.846682,41.217769 225.290039,42.1064453 C224.733396,42.9951216 224.416016,44.2206953 224.337891,45.7832031 C224.318359,45.9980479 224.308594,46.3203104 224.308594,46.75 L216.808594,46.75 C216.847656,43.156232 217.853506,40.2949325 219.826172,38.1660156 C221.798838,36.0370987 224.542951,34.9726562 228.058594,34.9726562 C231.554705,34.9726562 234.303701,36.051747 236.305664,38.2099609 C238.307627,40.3681749 239.308594,43.2148261 239.308594,46.75 L239.308594,63.625 C239.308594,67.5312695 239.630856,70.6562383 240.275391,73 L232.804688,73 L231.808594,67.375 C231.417967,68.1562539 231.100587,68.7617166 230.856445,69.1914062 C230.612303,69.6210959 230.255862,70.1533171 229.787109,70.7880859 C229.318357,71.4228547 228.849612,71.9111311 228.380859,72.2529297 C227.912107,72.5947283 227.326175,72.8925769 226.623047,73.1464844 C225.919918,73.4003919 225.148442,73.5273438 224.308594,73.5273438 L224.308594,73.5273438 Z M245.753906,73 L245.753906,35.5 L253.253906,35.5 L253.253906,40.5097656 C254.015629,39.0253832 255.124016,37.7314508 256.579102,36.6279297 C258.034187,35.5244085 259.650382,34.9726562 261.427734,34.9726562 C261.486328,34.9726562 261.886715,35.0117184 262.628906,35.0898438 L262.628906,43.3808594 C261.242181,42.8339816 259.855476,42.5605469 258.46875,42.5605469 C256.906242,42.5605469 255.646489,43.0292922 254.689453,43.9667969 C253.732417,44.9043016 253.253906,46.1445235 253.253906,47.6875 L253.253906,73 L245.753906,73 Z M276.457031,73.5273438 C273.507798,73.5273438 271.364265,72.7753981 270.026367,71.2714844 C268.68847,69.7675706 268,67.4922027 267.960938,64.4453125 L267.960938,41.125 L264.210938,41.125 L264.210938,35.5 L267.960938,35.5 L267.960938,22.375 L275.460938,22.375 L275.460938,35.5 L281.085938,35.5 L281.085938,41.125 L275.460938,41.125 L275.460938,63.0097656 C275.460938,64.5136794 275.666014,65.617184 276.076172,66.3203125 C276.48633,67.023441 277.3164,67.375 278.566406,67.375 C279.113284,67.375 279.953119,67.2773447 281.085938,67.0820312 L281.085938,73.1757812 C279.210928,73.4101574 277.667975,73.5273438 276.457031,73.5273438 L276.457031,73.5273438 Z M141.75,138 L141.75,85.5 L153.380859,85.5 C158.869168,85.5 162.7412,86.6230356 164.99707,88.8691406 C167.252941,91.1152456 168.380859,94.99216 168.380859,100.5 L168.380859,121.125 C168.380859,126.886748 167.23341,131.139635 164.938477,133.883789 C162.643543,136.627943 158.771512,138 153.322266,138 L141.75,138 Z M149.25,132.375 L153.380859,132.375 C154.611334,132.375 155.666011,132.262696 156.544922,132.038086 C157.423833,131.813475 158.136716,131.403323 158.683594,130.807617 C159.230471,130.211911 159.660155,129.64551 159.972656,129.108398 C160.285158,128.571286 160.504882,127.736334 160.631836,126.603516 C160.75879,125.470697 160.832031,124.53809 160.851562,123.805664 C160.871094,123.073239 160.880859,121.935555 160.880859,120.392578 L160.880859,119.25 L160.880859,102.375 C160.880859,101.417964 160.875977,100.656253 160.866211,100.089844 C160.856445,99.5234347 160.827149,98.854496 160.77832,98.0830078 C160.729492,97.3115196 160.65625,96.7011741 160.558594,96.2519531 C160.460937,95.8027321 160.32422,95.2998075 160.148438,94.7431641 C159.972655,94.1865207 159.752931,93.7519547 159.489258,93.4394531 C159.225585,93.1269516 158.903322,92.7998064 158.522461,92.4580078 C158.1416,92.1162092 157.702151,91.8623055 157.204102,91.6962891 C156.706052,91.5302726 156.125003,91.3935552 155.460938,91.2861328 C154.796872,91.1787104 154.054692,91.125 153.234375,91.125 L149.25,91.125 L149.25,132.375 Z M185.226562,138.527344 C183.410147,138.527344 181.833015,138.214847 180.495117,137.589844 C179.15722,136.964841 178.092777,136.149419 177.301758,135.143555 C176.510738,134.13769 175.871096,132.848641 175.382812,131.276367 C174.894529,129.704094 174.557618,128.131844 174.37207,126.55957 C174.186523,124.987297 174.074219,123.15626 174.035156,121.066406 C173.976562,119.425773 173.976562,117.785164 174.035156,116.144531 C174.09375,114.191396 174.225585,112.458015 174.430664,110.944336 C174.635743,109.430656 174.992185,107.960945 175.5,106.535156 C176.007815,105.109368 176.666988,103.937505 177.477539,103.019531 C178.28809,102.101558 179.352532,101.364261 180.670898,100.807617 C181.989264,100.250974 183.527335,99.9726562 185.285156,99.9726562 C186.886727,99.9726562 188.297845,100.182615 189.518555,100.602539 C190.739264,101.022463 191.754879,101.657222 192.56543,102.506836 C193.375981,103.35645 194.049802,104.298823 194.586914,105.333984 C195.124026,106.369146 195.529296,107.624016 195.802734,109.098633 C196.076173,110.57325 196.266601,112.02343 196.374023,113.449219 C196.481446,114.875007 196.535156,116.515616 196.535156,118.371094 L196.535156,119.25 L181.535156,119.25 L181.535156,121.125 L181.535156,122.326172 C181.496094,123.048832 181.491211,123.795895 181.520508,124.567383 C181.549805,125.338871 181.583984,126.095699 181.623047,126.837891 C181.66211,127.580082 181.76953,128.288083 181.945312,128.961914 C182.121095,129.635746 182.335936,130.22656 182.589844,130.734375 C182.843751,131.24219 183.200193,131.642577 183.65918,131.935547 C184.118166,132.228517 184.660153,132.375 185.285156,132.375 C186.06641,132.375 186.710935,132.223634 187.21875,131.920898 C187.726565,131.618163 188.102538,131.164066 188.34668,130.558594 C188.590822,129.953122 188.761718,129.347659 188.859375,128.742188 C188.957032,128.136716 189.015625,127.375005 189.035156,126.457031 L189.035156,124.875 L196.476562,124.875 L196.476562,126.369141 C196.30078,130.373067 195.314462,133.40038 193.517578,135.451172 C191.720694,137.501963 188.95705,138.527344 185.226562,138.527344 L185.226562,138.527344 Z M181.535156,115.5 L188.976562,115.5 L188.976562,113.244141 C188.957031,112.248042 188.898438,111.37891 188.800781,110.636719 C188.703125,109.894528 188.532228,109.152347 188.288086,108.410156 C188.043944,107.667965 187.667971,107.101564 187.160156,106.710938 C186.652341,106.320311 186.027347,106.125 185.285156,106.125 C184.523434,106.125 183.883792,106.330076 183.366211,106.740234 C182.84863,107.150393 182.467775,107.741207 182.223633,108.512695 C181.979491,109.284184 181.808594,110.041012 181.710938,110.783203 C181.613281,111.525394 181.554688,112.414057 181.535156,113.449219 L181.535156,115.5 Z M201.955078,138 L201.955078,100.5 L209.455078,100.5 L209.455078,104.542969 C210.568365,103.527339 211.476559,102.750979 212.179688,102.213867 C212.882816,101.676755 213.854486,101.168948 215.094727,100.69043 C216.334967,100.211912 217.658196,99.9726562 219.064453,99.9726562 C220.666024,99.9726562 221.964839,100.558588 222.960938,101.730469 C223.957036,102.90235 224.455078,104.337882 224.455078,106.037109 L224.455078,138 L216.955078,138 L216.955078,109.875 C216.955078,108.5664 216.769533,107.614261 216.398438,107.018555 C216.027342,106.422849 215.275396,106.125 214.142578,106.125 C213.498044,106.125 212.858402,106.256835 212.223633,106.520508 C211.588864,106.784181 211.115236,107.028319 210.802734,107.25293 C210.490233,107.47754 210.041019,107.833982 209.455078,108.322266 L209.455078,138 L201.955078,138 Z M241.417969,138.527344 C238.468735,138.527344 236.325202,137.775398 234.987305,136.271484 C233.649407,134.767571 232.960938,132.492203 232.921875,129.445312 L232.921875,106.125 L229.171875,106.125 L229.171875,100.5 L232.921875,100.5 L232.921875,87.375 L240.421875,87.375 L240.421875,100.5 L246.046875,100.5 L246.046875,106.125 L240.421875,106.125 L240.421875,128.009766 C240.421875,129.513679 240.626951,130.617184 241.037109,131.320312 C241.447268,132.023441 242.277337,132.375 243.527344,132.375 C244.074221,132.375 244.914057,132.277345 246.046875,132.082031 L246.046875,138.175781 C244.171866,138.410157 242.628912,138.527344 241.417969,138.527344 L241.417969,138.527344 Z M261.808594,132.375 C262.33594,132.375 262.84863,132.218752 263.34668,131.90625 C263.844729,131.593748 264.220702,131.291017 264.474609,130.998047 C264.728517,130.705077 265.041014,130.314456 265.412109,129.826172 C265.470703,129.728515 265.519531,129.660156 265.558594,129.621094 L265.558594,119.25 C265.246092,119.464845 264.728519,119.796873 264.005859,120.246094 C263.2832,120.695315 262.707033,121.061522 262.277344,121.344727 C261.847654,121.627931 261.330081,122.018552 260.724609,122.516602 C260.119138,123.014651 259.650392,123.493162 259.318359,123.952148 C258.986326,124.411135 258.693361,124.972653 258.439453,125.636719 C258.185546,126.300785 258.058594,126.994137 258.058594,127.716797 C258.058594,130.822281 259.308581,132.375 261.808594,132.375 L261.808594,132.375 Z M258.058594,138.527344 C255.96874,138.527344 254.196296,137.624032 252.741211,135.817383 C251.286126,134.010733 250.558594,131.974621 250.558594,129.708984 C250.558594,127.892569 250.866208,126.242195 251.481445,124.757812 C252.096683,123.27343 252.74609,122.086919 253.429688,121.198242 C254.113285,120.309566 255.255851,119.391606 256.857422,118.444336 C258.458992,117.497066 259.669918,116.847658 260.490234,116.496094 C261.310551,116.144529 262.736318,115.568363 264.767578,114.767578 C265.119142,114.630859 265.382812,114.523438 265.558594,114.445312 L265.558594,111.75 C265.558594,109.855459 265.294925,108.385747 264.767578,107.34082 C264.240232,106.295893 263.253913,105.773438 261.808594,105.773438 C260.519525,105.773438 259.596682,106.217769 259.040039,107.106445 C258.483396,107.995122 258.166016,109.220695 258.087891,110.783203 C258.068359,110.998048 258.058594,111.32031 258.058594,111.75 L250.558594,111.75 C250.597656,108.156232 251.603506,105.294933 253.576172,103.166016 C255.548838,101.037099 258.292951,99.9726562 261.808594,99.9726562 C265.304705,99.9726562 268.053701,101.051747 270.055664,103.209961 C272.057627,105.368175 273.058594,108.214826 273.058594,111.75 L273.058594,128.625 C273.058594,132.53127 273.380856,135.656238 274.025391,138 L266.554688,138 L265.558594,132.375 C265.167967,133.156254 264.850587,133.761717 264.606445,134.191406 C264.362303,134.621096 264.005862,135.153317 263.537109,135.788086 C263.068357,136.422855 262.599612,136.911131 262.130859,137.25293 C261.662107,137.594728 261.076175,137.892577 260.373047,138.146484 C259.669918,138.400392 258.898442,138.527344 258.058594,138.527344 L258.058594,138.527344 Z M279.533203,138 L279.533203,85.5 L287.033203,85.5 L287.033203,138 L279.533203,138 Z" id="Smart-" fill="#B7BFD4" sketch:type="MSShapeGroup"></path>
            </g>
        </g>
    </g>
</svg>