<?xml version="1.0" encoding="UTF-8" standalone="no"?>
<svg width="110px" height="111px" viewBox="0 0 110 111" version="1.1" xmlns="http://www.w3.org/2000/svg" xmlns:xlink="http://www.w3.org/1999/xlink" xmlns:sketch="http://www.bohemiancoding.com/sketch/ns">
    <!-- Generator: Sketch 3.4.2 (15855) - http://www.bohemiancoding.com/sketch -->
    <title>smart tooth</title>
    <desc>Created with Sketch.</desc>
    <defs></defs>
    <g id="Page-1" stroke="none" stroke-width="1" fill="none" fill-rule="evenodd" sketch:type="MSPage">
        <g id="Desktop-HD" sketch:type="MSArtboardGroup" transform="translate(-1230.000000, -496.000000)">
            <g id="smart-tooth" sketch:type="MSLayerGroup" transform="translate(1230.000000, 493.000000)">
                <g id="noun_244249_cc" transform="translate(0.000000, 27.000000)" fill="#B7BFD4" sketch:type="MSShapeGroup">
                    <g id="Group">
                        <path d="M43.5310438,2.63636364 C36.4820241,1.22743117 27.7882353,0 20.0343137,0 C8.99084967,0 0.0620915033,8.92323893 0.0620915033,19.9598765 C0.0620915033,24.538907 3.23415033,30.644281 5.23137255,33.579557 C5.34885621,33.8143791 5.93627451,35.3407226 6.99362745,45.2032498 C9.10833333,62.8149056 12.0454248,86.8841685 24.7336601,86.8841685 C35.4246732,86.8841685 38.1267974,74.2037763 40.1240196,65.0457153 C40.7114379,62.2278504 42.2387255,54.5961329 43.5310458,54.0090777 C45.175817,54.0090777 46.9380719,62.3452614 47.7604575,65.8675926 L47.8779412,66.2198257 C50.1101307,75.9649419 52.5772876,86.8841685 62.3284314,86.8841685 C75.3691176,86.8841685 78.0712418,62.5800835 80.1859477,44.8510167 C80.5383987,41.4460966 81.3607843,34.5188453 81.7132353,33.696968 C81.7132353,33.579557 87,25.1259622 87,20.0772876 C87,8.92323893 78.0712418,0 67.0277778,0 C59.2738562,0 50.5800634,1.22743117 43.5310438,2.63636364 Z M20.0343137,6.04466231 C22.7930448,6.04466231 24.6941149,6.15530197 27.5924555,6.36498298 C32.5935763,6.72679004 38.5865701,8.38348192 42.8261438,9.27547204 L43.2960784,9.39288308 C43.9778256,9.56321451 47.5991876,8.3217051 50.9849785,7.88078822 C52.8170241,7.64220886 56.066628,6.43074197 59.2395735,6.28016216 C62.328849,6.13355311 65.3454558,7.04466231 66.9102941,7.04466231 C74.0767974,7.04466231 79.8334967,12.7978032 79.8334967,19.9598765 C79.8334967,21.6036311 77.6013072,26.5348947 75.7215686,29.9398148 C74.546732,31.9358025 74.0767974,35.4581336 73.1369281,44.2639615 C71.9620915,53.8916667 68.9075163,79.8395062 62.3284314,79.8395062 C58.4514706,79.8395062 56.6892157,73.3818991 54.6919935,64.3412491 L54.5745098,63.989016 C52.5772876,55.1831881 50.8150327,46.9644154 43.5310458,46.9644154 C36.7169935,46.9644154 34.9547386,55.3005991 33.1924837,63.5193718 C31.1952614,72.7948439 29.3155229,79.8395062 24.7336601,79.8395062 C18.2720588,79.8395062 15.2174837,54.1264887 14.0426471,44.3813725 L14.0426471,44.1465505 C12.9852941,35.2233115 12.5153595,31.5835694 11.1055556,29.7049927 C9.46078431,27.2393609 7.11111111,22.3080973 7.11111111,19.9598765 C7.11111111,12.7978032 12.8678105,6.04466231 20.0343137,6.04466231 Z" id="Shape"></path>
                    </g>
                </g>
                <g id="Group" transform="translate(79.000000, 31.000000) rotate(-357.000000) translate(-79.000000, -31.000000) translate(48.000000, 2.000000)" sketch:type="MSShapeGroup">
                    <path d="M14.7408759,10.121214 L45.5259261,24.4765186 L34.0228134,49.1450234 L3.23776325,34.7897187 L14.7408759,10.121214 Z" id="Rectangle-1" stroke="#B7BFD4" stroke-width="6" fill="#B7BFD4"></path>
                    <path d="M-5.20403565e-09,3.00000001 L37.4347167,0.73227632 L61.9999994,27.0000019 L25.9365996,31.8557575 L-5.20403565e-09,3.00000001 Z" id="Rectangle-2" fill="#B7BFD4"></path>
                    <path d="M35,13 L46,26 L46,37 L46,53" id="Path-3" stroke="#B7BFD4" stroke-width="4"></path>
                    <polygon id="Triangle-7" fill="#B7BFD4" points="46 41 50 58 42 58 "></polygon>
                </g>
            </g>
        </g>
    </g>
</svg>