<?xml version="1.0" encoding="UTF-8" standalone="no"?>
<svg width="152px" height="152px" viewBox="0 0 152 152" version="1.1" xmlns="http://www.w3.org/2000/svg" xmlns:xlink="http://www.w3.org/1999/xlink" xmlns:sketch="http://www.bohemiancoding.com/sketch/ns">
    <!-- Generator: Sketch 3.4.2 (15855) - http://www.bohemiancoding.com/sketch -->
    <title>tooth</title>
    <desc>Created with Sketch.</desc>
    <defs>
        <path d="M32.2116667,14.9216667 C29.3066667,14.8501111 26.9251111,15.5594444 24.7372222,16.2882222 C23.1326667,16.8233333 21.6634444,16.8233333 20.0596667,16.2882222 C17.8733333,15.5602222 15.4793333,14.8563333 12.5867778,14.9216667 C8.06788889,15.0352222 4.55,17.0395556 2.41111111,20.7176667 C-0.98,26.5486667 -0.457333333,36.3424444 3.64466667,43.9911111 C6.03866667,48.7005556 6.69744444,53.1105556 7.39433333,57.7772222 C7.85788889,60.8774444 8.33622222,64.0826667 9.36677778,67.3874444 C9.85366667,68.95 11.2777778,69.9976667 12.9111111,69.9976667 L12.9982222,69.9961111 C14.6727778,69.9603333 16.0836667,68.8473333 16.5106667,67.228 C16.9423333,65.5907778 17.2651111,63.8135556 17.6081111,61.9321111 C18.0491111,59.5077778 18.5048889,57.0025556 19.215,54.7711111 C19.6653333,53.3571111 20.9152222,52.444 22.3992222,52.444 C23.8832222,52.444 25.1323333,53.3571111 25.5826667,54.7711111 C26.2935556,57.0033333 26.7493333,59.5108889 27.1903333,61.9352222 C27.5325556,63.8158889 27.8553333,65.5915556 28.2862222,67.228 C28.7132222,68.8473333 30.1241111,69.9595556 31.7986667,69.9976667 L31.8834444,69.9992222 C33.5183333,69.9992222 34.944,68.9492222 35.4293333,67.3874444 C36.5174444,63.8967778 37.0167778,60.7148889 37.4997778,57.6387778 C38.199,53.1805556 38.8601111,48.9688889 41.167,43.9638889 C45.2674444,36.3191111 45.787,26.5447778 42.4036667,20.7246667 C40.2632222,17.0426667 36.7383333,15.036 32.2116667,14.9216667 L32.2116667,14.9216667 Z M39.8354444,43.2996667 C37.4212222,48.5317778 36.7126667,53.0436667 36.0274444,57.4085556 C35.5537778,60.4317778 35.063,63.5568889 34.0075556,66.9441111 C33.7112222,67.8961111 32.8782222,68.509 31.8842222,68.509 L31.8842222,69.2541111 L31.8321111,68.509 C30.8132222,68.4856667 29.988,67.8346667 29.7282222,66.85 C29.3121111,65.2703333 28.994,63.5203333 28.6572222,61.6692222 C28.2076667,59.1982222 27.7425556,56.644 27.0028889,54.3207778 C26.3518889,52.2752222 24.5451111,50.9545556 22.4,50.9545556 C20.2533333,50.9545556 18.4465556,52.2752222 17.7963333,54.3207778 C17.0566667,56.6424444 16.5915556,59.1974444 16.1427778,61.6668889 C15.8052222,63.5187778 15.4871111,65.2687778 15.0702222,66.85 C14.8112222,67.8346667 13.986,68.4856667 12.9126667,68.509 C11.9202222,68.509 11.0872222,67.8945556 10.7908889,66.9441111 C9.79455556,63.749 9.32555556,60.6013333 8.86977778,57.5586667 C8.18611111,52.9775556 7.47833333,48.2416667 4.96688889,43.3012222 C1.085,36.0632222 0.553,26.8815556 3.70144444,21.4674444 C5.593,18.2147778 8.59522222,16.5137778 12.6264444,16.4118889 C15.2903333,16.3527778 17.5272222,17.0154444 19.5906667,17.703 C21.504,18.3392222 23.2967778,18.3392222 25.2101111,17.703 C27.2751111,17.0146667 29.5151111,16.3566667 32.1766667,16.4118889 C36.2148889,16.5137778 39.2241111,18.2171111 41.118,21.4736667 C44.2571111,26.8768889 43.7274444,36.0391111 39.8354444,43.2996667 L39.8354444,43.2996667 Z" id="path-1"></path>
        <path d="M52.311,1.98722222 L50.82,1.98722222 C50.82,6.58388889 50.0142222,9.52622222 48.3567778,10.9845556 C47.005,12.1737778 45.2223333,12.2702222 43.2024444,12.2702222 L42.6634444,12.2702222 C42.6572222,12.2694444 42.6502222,12.2694444 42.6447778,12.2694444 L42.6447778,13.7604444 L42.6611111,13.7604444 C47.4662222,13.769 50.82,17.9946667 50.82,24.0426667 L52.311,24.0426667 C52.311,20.2237778 54.033,13.7604444 60.487,13.7604444 L60.487,12.2694444 C56.9768889,12.2694444 52.311,11.2038889 52.311,1.98722222 L52.311,1.98722222 Z M51.5658889,19.2577778 C50.6831111,16.625 49.063,14.5631111 46.9583333,13.3808889 C47.7905556,13.1405556 48.6087778,12.747 49.3406667,12.1037778 C50.4108889,11.1634444 51.1863333,9.77666667 51.6763333,7.917 C52.5832222,10.5225556 54.208,12.2616667 56.5413333,13.1242222 C54.0672222,14.3111111 52.4323333,16.6133333 51.5658889,19.2577778 L51.5658889,19.2577778 Z" id="path-2"></path>
        <path d="M32.1541111,10.5948889 L33.6451111,10.5948889 C33.6451111,7.87266667 35.4744444,6.04333333 38.1974444,6.04333333 L38.1974444,4.55233333 C35.245,4.55233333 33.6451111,3.82744444 33.6451111,0 L32.1541111,0 C32.1541111,3.89433333 31.0177778,4.55233333 27.6025556,4.55233333 L27.6025556,6.04333333 C31.3646667,6.04411111 32.1541111,8.519 32.1541111,10.5948889 L32.1541111,10.5948889 Z M32.9552222,3.76288889 C33.4242222,4.58888889 34.0705556,5.124 34.8156667,5.467 C34.0402222,5.95077778 33.4055556,6.61033333 32.9521111,7.41066667 C32.536,6.60022222 31.9394444,5.94688889 31.1834444,5.47088889 C31.9433333,5.12088889 32.5398889,4.57955556 32.9552222,3.76288889 L32.9552222,3.76288889 Z" id="path-3"></path>
        <path d="M53.2933333,30.6623333 L51.8023333,30.6623333 C51.8023333,34.8382222 50.505,35.602 47.9484444,35.602 L47.9484444,37.093 C51.0727778,37.093 51.8023333,37.4484444 51.8023333,40.9476667 L53.2933333,40.9476667 C53.2933333,37.4251111 53.9746667,37.093 57.1487778,37.093 L57.1487778,35.602 C54.1574444,35.6012222 53.2933333,34.4944444 53.2933333,30.6623333 L53.2933333,30.6623333 Z M52.5482222,37.1995556 C52.255,36.7313333 51.8738889,36.3937778 51.3994444,36.1518889 C51.884,35.7917778 52.2487778,35.3437778 52.521,34.8351111 C52.7932222,35.3717778 53.1587778,35.8244444 53.6425556,36.1798889 C53.1937778,36.4186667 52.8297778,36.7484444 52.5482222,37.1995556 L52.5482222,37.1995556 Z" id="path-4"></path>
    </defs>
    <g id="Page-1" stroke="none" stroke-width="1" fill="none" fill-rule="evenodd" sketch:type="MSPage">
        <g id="tooth" sketch:type="MSArtboardGroup">
            <g sketch:type="MSLayerGroup">
                <circle id="Oval-4" fill="#128080" sketch:type="MSShapeGroup" cx="76" cy="76" r="76"></circle>
                <g id="Group" transform="translate(52.000000, 41.000000)">
                    <g id="Shape">
                        <g>
                            <use stroke="none" fill="#000000" fill-rule="evenodd" sketch:type="MSShapeGroup" xlink:href="#path-1"></use>
                            <use stroke="#C7ECED" stroke-width="3" fill="none" xlink:href="#path-1"></use>
                        </g>
                        <g>
                            <use stroke="none" sketch:type="MSShapeGroup" xlink:href="#path-2"></use>
                            <use stroke="#C7ECED" stroke-width="2" xlink:href="#path-2"></use>
                        </g>
                        <g>
                            <use stroke="none" sketch:type="MSShapeGroup" xlink:href="#path-3"></use>
                            <use stroke="#C7ECED" stroke-width="2" xlink:href="#path-3"></use>
                        </g>
                        <g>
                            <use stroke="none" sketch:type="MSShapeGroup" xlink:href="#path-4"></use>
                            <use stroke="#C7ECED" stroke-width="2" xlink:href="#path-4"></use>
                        </g>
                    </g>
                </g>
            </g>
        </g>
    </g>
</svg>