<?xml version="1.0" encoding="UTF-8" standalone="no"?>
<svg width="106px" height="110px" viewBox="0 0 106 110" version="1.1" xmlns="http://www.w3.org/2000/svg" xmlns:xlink="http://www.w3.org/1999/xlink" xmlns:sketch="http://www.bohemiancoding.com/sketch/ns">
    <!-- Generator: Sketch 3.4.2 (15855) - http://www.bohemiancoding.com/sketch -->
    <title>toothbrush</title>
    <desc>Created with Sketch.</desc>
    <defs></defs>
    <g id="Page-1" stroke="none" stroke-width="1" fill="none" fill-rule="evenodd" sketch:type="MSPage">
        <g id="toothbrush" sketch:type="MSArtboardGroup" fill="#3C4B75">
            <g id="Group" sketch:type="MSLayerGroup" transform="translate(57.871392, 53.761572) rotate(-314.000000) translate(-57.871392, -53.761572) translate(2.131809, 34.088778)">
                <path d="M109.05561,39.0177085 L2.4235571,39.0177085 C1.08357751,39.0177085 0,37.7429115 0,36.1664649 C0,34.5900183 1.08357751,33.3152212 2.4235571,33.3152212 L109.05561,33.3152212 C110.39559,33.3152212 111.479167,34.5900183 111.479167,36.1664649 C111.479167,37.7429115 110.39559,39.0177085 109.05561,39.0177085 L109.05561,39.0177085 Z" id="Shape" sketch:type="MSShapeGroup"></path>
                <path d="M5.70248728,38.5862186 C4.12604071,38.5862186 2.85124364,37.3114215 2.85124364,35.7349749 L2.85124364,18.6288246 C2.85124364,17.052378 4.12604071,15.777581 5.70248728,15.777581 C7.27893386,15.777581 8.55373092,17.052378 8.55373092,18.6288246 L8.55373092,35.7349749 C8.55373092,37.3114215 7.27762234,38.5862186 5.70248728,38.5862186 L5.70248728,38.5862186 Z" id="Shape" sketch:type="MSShapeGroup"></path>
                <path d="M14.2562182,38.5862186 C12.6797716,38.5862186 11.4049746,37.3114215 11.4049746,35.7349749 L11.4049746,18.6288246 C11.4049746,17.052378 12.6797716,15.777581 14.2562182,15.777581 C15.8326648,15.777581 17.1074618,17.052378 17.1074618,18.6288246 L17.1074618,35.7349749 C17.1061503,37.3114215 15.8313533,38.5862186 14.2562182,38.5862186 L14.2562182,38.5862186 Z" id="Shape" sketch:type="MSShapeGroup"></path>
                <path d="M22.8086376,38.5862186 C21.232191,38.5862186 19.957394,37.3114215 19.957394,35.7349749 L19.957394,18.6288246 C19.957394,17.052378 21.232191,15.777581 22.8086376,15.777581 C24.3850842,15.777581 25.6598813,17.052378 25.6598813,18.6288246 L25.6598813,35.7349749 C25.6598813,37.3114215 24.3850842,38.5862186 22.8086376,38.5862186 L22.8086376,38.5862186 Z" id="Shape" sketch:type="MSShapeGroup"></path>
                <path d="M31.3623685,38.5862186 C29.785922,38.5862186 28.5111249,37.3114215 28.5111249,35.7349749 L28.5111249,18.6288246 C28.5111249,17.052378 29.785922,15.777581 31.3623685,15.777581 C32.9388151,15.777581 34.2136122,17.052378 34.2136122,18.6288246 L34.2136122,35.7349749 C34.2136122,37.3114215 32.9388151,38.5862186 31.3623685,38.5862186 L31.3623685,38.5862186 Z" id="Shape" sketch:type="MSShapeGroup"></path>
                <path d="M24.3483616,13.6253773 C20.6865989,13.6253773 18.6183324,11.5505532 16.7638437,9.69081843 L16.3415344,9.26719759 C14.311302,7.23171915 13.7460371,6.77531033 11.8443336,7.10319023 C9.52819,7.51369587 8.58389588,8.92751401 8.48159735,10.0160753 C8.33339563,11.5846528 6.96941523,12.7781356 5.37329586,12.5840307 C3.80602992,12.435829 2.65582722,11.0443067 2.80665197,9.47572921 C3.12141668,6.15102699 5.73265223,2.39221178 10.8528248,1.48988628 C15.7920077,0.621660297 18.2196305,3.07420198 20.3783918,5.23820934 L20.7993896,5.66183017 C22.832245,7.69730862 23.3857062,8.16158656 25.3044594,7.83108362 C27.5379773,7.43631621 28.6094889,6.11561596 28.6593266,5.05459659 C28.7314602,3.52536472 29.9931421,2.33712795 31.5053242,2.33712795 C31.5525389,2.33712795 31.5971305,2.33712795 31.6417222,2.33975099 C33.2142342,2.41450761 34.4313244,3.74832306 34.3565678,5.32214659 C34.165086,9.36556157 30.926944,12.6312454 26.2959683,13.4443876 C25.5995514,13.5663589 24.9529722,13.6253773 24.3483616,13.6253773 L24.3483616,13.6253773 Z" id="Shape" sketch:type="MSShapeGroup"></path>
            </g>
        </g>
    </g>
</svg>