<?xml version="1.0" encoding="UTF-8" standalone="no"?>
<svg width="106px" height="110px" viewBox="0 0 106 110" version="1.1" xmlns="http://www.w3.org/2000/svg" xmlns:xlink="http://www.w3.org/1999/xlink" xmlns:sketch="http://www.bohemiancoding.com/sketch/ns">
    <!-- Generator: Sketch 3.4.2 (15855) - http://www.bohemiancoding.com/sketch -->
    <title>tooth</title>
    <desc>Created with Sketch.</desc>
    <defs></defs>
    <g id="Page-1" stroke="none" stroke-width="1" fill="none" fill-rule="evenodd" sketch:type="MSPage">
        <g id="tooth" sketch:type="MSArtboardGroup" fill="#3C4B75">
            <path d="M53.559959,5.39553429 C44.8745599,3.66526635 34.16257,2.15789474 24.608631,2.15789474 C11.0015056,2.15789474 -7.10542736e-15,13.1162583 -7.10542736e-15,26.6700238 C-7.10542736e-15,32.2933946 3.90842962,39.7912223 6.36929272,43.3959472 C6.51404937,43.6843252 7.23783263,45.5587821 8.54064251,57.6706577 C11.1462623,79.2990069 14.7651786,108.857751 30.3988971,108.857751 C43.5717525,108.857751 46.9011555,93.2853393 49.3620186,82.0385978 C50.0858018,78.5780619 51.9676383,69.2057772 53.5599615,68.4848323 C55.5865546,68.4848323 57.7579044,78.7222509 58.771201,83.0479207 L58.9159576,83.4804877 C61.666334,95.4481743 64.7062237,108.857751 76.7210259,108.857751 C92.7890144,108.857751 96.1184174,79.0106289 98.7240371,57.2380907 C99.1583071,53.0566098 100.171604,44.5494592 100.605874,43.5401362 C100.605874,43.3959472 107.119923,33.0143396 107.119923,26.8142128 C107.119923,13.1162583 96.1184174,2.15789474 82.511292,2.15789474 C72.9573529,2.15789474 62.2453582,3.66526635 53.559959,5.39553429 Z M24.608631,9.58116424 C28.0077818,9.58116424 30.3501717,9.71703751 33.9213413,9.9745405 C40.0834366,10.418865 47.4676611,12.4533989 52.6914216,13.5488253 L53.2704482,13.6930143 C54.110458,13.9021933 58.5724934,12.3775326 62.7442714,11.8360557 C65.0016134,11.5430635 69.0055896,10.0552972 72.9151117,9.87037458 C76.7215405,9.69032838 80.438431,10.8092344 82.3665354,10.8092344 C91.1966912,10.8092344 98.2897672,17.8744952 98.2897672,26.6700238 C98.2897672,28.6886697 95.5393908,34.7446075 93.2232843,38.9260884 C91.7757178,41.3773013 91.1966912,45.7029711 90.038638,56.5171457 C88.5910714,68.3406433 84.8273985,100.206411 76.7210259,100.206411 C71.9440564,100.206411 69.7727066,92.2760164 67.3118435,81.1734638 L67.1670868,80.7408968 C64.7062237,69.9267222 62.5348739,59.8334926 53.5599615,59.8334926 C45.1640756,59.8334926 42.9927258,70.0709112 40.8213761,80.1641408 C38.360513,91.5550714 36.0444065,100.206411 30.3988971,100.206411 C22.4372812,100.206411 18.6736082,68.6290213 17.2260417,56.6613347 L17.2260417,56.3729567 C15.9232318,45.4145931 15.3442052,40.9447343 13.6071254,38.6377104 C11.5805322,35.6097415 8.68539916,29.5538037 8.68539916,26.6700238 C8.68539916,17.8744952 15.7784751,9.58116424 24.608631,9.58116424 Z" id="Shape" sketch:type="MSShapeGroup"></path>
        </g>
    </g>
</svg>