<?xml version="1.0" encoding="UTF-8" standalone="no"?>
<svg width="152px" height="152px" viewBox="0 0 152 152" version="1.1" xmlns="http://www.w3.org/2000/svg" xmlns:xlink="http://www.w3.org/1999/xlink" xmlns:sketch="http://www.bohemiancoding.com/sketch/ns">
    <!-- Generator: Sketch 3.4.2 (15855) - http://www.bohemiancoding.com/sketch -->
    <title>dentist</title>
    <desc>Created with Sketch.</desc>
    <defs></defs>
    <g id="Page-1" stroke="none" stroke-width="1" fill="none" fill-rule="evenodd" sketch:type="MSPage">
        <g id="dentist" sketch:type="MSArtboardGroup">
            <g sketch:type="MSLayerGroup">
                <circle id="Oval-4" fill="#128080" sketch:type="MSShapeGroup" cx="76" cy="76" r="76"></circle>
                <g id="Group" transform="translate(52.000000, 43.000000)" fill="#C7ECED" sketch:type="MSShapeGroup">
                    <path d="M41.3043478,54.8387097 C32.5478261,65.8064516 32.7456522,65.8064516 23.9130435,65.8064516 C16.8413043,65.8064516 15.6108696,65.8064516 6.52173913,54.8387097 C0.965217391,48.1352258 0,32.572 0,24.1290323 C0,5.95767742 10.7065217,0 23.9130435,0 C37.1195652,0 47.826087,5.95767742 47.826087,24.1290323 C47.826087,33.8859355 47.3478261,47.2709677 41.3043478,54.8387097 L41.3043478,54.8387097 Z M4.77173913,19.7419355 L9.3326087,19.7419355 C8.92173913,18.3512258 8.69565217,16.8815484 8.69565217,15.3570323 C8.69565217,13.0494194 9.21304348,10.8690323 10.1152174,8.90580645 C7.46521739,11.3274839 5.57173913,14.8503226 4.77173913,19.7419355 L4.77173913,19.7419355 Z M23.9130435,4.38709677 C17.9086957,4.38709677 13.0434783,9.29625806 13.0434783,15.3570323 C13.0434783,21.4134194 17.9086957,26.3225806 23.9130435,26.3225806 C29.9152174,26.3225806 34.7826087,21.4134194 34.7826087,15.3570323 C34.7826087,9.29625806 29.9152174,4.38709677 23.9130435,4.38709677 L23.9130435,4.38709677 Z M37.7086957,8.90580645 C38.6130435,10.8712258 39.1304348,13.0516129 39.1304348,15.3570323 C39.1304348,16.8815484 38.9021739,18.3512258 38.4913043,19.7419355 L43.0543478,19.7419355 C42.2521739,14.8503226 40.3565217,11.3274839 37.7086957,8.90580645 L37.7086957,8.90580645 Z M43.4347826,24.1290323 L36.3913043,24.1290323 C33.6391304,28.1037419 29.0804348,30.7096774 23.9130435,30.7096774 C18.7434783,30.7096774 14.1826087,28.1037419 11.4347826,24.1290323 L4.39130435,24.1290323 C4.37826087,24.5216774 4.34782609,24.8923871 4.34782609,25.2981935 C4.34782609,32.615871 5.13695652,46.1018065 9.6826087,51.9147097 C17.1195652,61.4193548 18.126087,61.4193548 23.9130435,61.4193548 C31.1391304,61.4193548 30.976087,61.4193548 38.1413043,51.9147097 C43.0869565,45.356 43.4782609,33.7565161 43.4782609,25.2981935 C43.4782609,24.8923871 43.4478261,24.5216774 43.4347826,24.1290323 L43.4347826,24.1290323 Z M33.6956522,37.2903226 C31.8934783,37.2903226 30.4347826,35.8184516 30.4347826,34 C30.4347826,32.1837419 31.8934783,30.7096774 33.6956522,30.7096774 C35.4956522,30.7096774 36.9565217,32.1837419 36.9565217,34 C36.9565217,35.8184516 35.4956522,37.2903226 33.6956522,37.2903226 L33.6956522,37.2903226 Z M32.6086957,48.2580645 C32.6086957,48.2580645 30.5173913,54.8387097 23.9130435,54.8387097 C17.1695652,54.8387097 15.2173913,48.2580645 15.2173913,48.2580645 L15.2173913,48.2580645 C15.2173913,48.2580645 17.876087,50.4538065 23.9130435,50.4538065 C29.4673913,50.4538065 32.6086957,48.2580645 32.6086957,48.2580645 L32.6086957,48.2580645 L32.6086957,48.2580645 Z M14.1304348,37.2903226 C12.3282609,37.2903226 10.8695652,35.8184516 10.8695652,34 C10.8695652,32.1837419 12.3282609,30.7096774 14.1304348,30.7096774 C15.9304348,30.7096774 17.3913043,32.1837419 17.3913043,34 C17.3913043,35.8184516 15.9304348,37.2903226 14.1304348,37.2903226 L14.1304348,37.2903226 Z M23.9130435,19.7419355 C21.5130435,19.7419355 19.5652174,17.7765161 19.5652174,15.3570323 C19.5652174,12.9331613 21.5130435,10.9677419 23.9130435,10.9677419 C26.3130435,10.9677419 28.2608696,12.9331613 28.2608696,15.3570323 C28.2608696,17.7787097 26.3130435,19.7419355 23.9130435,19.7419355 L23.9130435,19.7419355 Z" id="Shape"></path>
                </g>
            </g>
        </g>
    </g>
</svg>