<?xml version="1.0" encoding="UTF-8" standalone="no"?>
<svg width="152px" height="152px" viewBox="0 0 152 152" version="1.1" xmlns="http://www.w3.org/2000/svg" xmlns:xlink="http://www.w3.org/1999/xlink" xmlns:sketch="http://www.bohemiancoding.com/sketch/ns">
    <!-- Generator: Sketch 3.4.2 (15855) - http://www.bohemiancoding.com/sketch -->
    <title>dentist-reverse</title>
    <desc>Created with Sketch.</desc>
    <defs></defs>
    <g id="Page-1" stroke="none" stroke-width="1" fill="none" fill-rule="evenodd" sketch:type="MSPage">
        <g id="dentist-reverse" sketch:type="MSArtboardGroup">
            <g sketch:type="MSLayerGroup">
                <circle id="Oval-4" fill="#FFFFFF" sketch:type="MSShapeGroup" cx="76" cy="76" r="76"></circle>
                <path d="M93.3043478,97.8387097 C84.5478261,108.806452 84.7456522,108.806452 75.9130435,108.806452 C68.8413043,108.806452 67.6108696,108.806452 58.5217391,97.8387097 C52.9652174,91.1352258 52,75.572 52,67.1290323 C52,48.9576774 62.7065217,43 75.9130435,43 C89.1195652,43 99.826087,48.9576774 99.826087,67.1290323 C99.826087,76.8859355 99.3478261,90.2709677 93.3043478,97.8387097 L93.3043478,97.8387097 Z M56.7717391,62.7419355 L61.3326087,62.7419355 C60.9217391,61.3512258 60.6956522,59.8815484 60.6956522,58.3570323 C60.6956522,56.0494194 61.2130435,53.8690323 62.1152174,51.9058065 C59.4652174,54.3274839 57.5717391,57.8503226 56.7717391,62.7419355 L56.7717391,62.7419355 Z M75.9130435,47.3870968 C69.9086957,47.3870968 65.0434783,52.2962581 65.0434783,58.3570323 C65.0434783,64.4134194 69.9086957,69.3225806 75.9130435,69.3225806 C81.9152174,69.3225806 86.7826087,64.4134194 86.7826087,58.3570323 C86.7826087,52.2962581 81.9152174,47.3870968 75.9130435,47.3870968 L75.9130435,47.3870968 Z M89.7086957,51.9058065 C90.6130435,53.8712258 91.1304348,56.0516129 91.1304348,58.3570323 C91.1304348,59.8815484 90.9021739,61.3512258 90.4913043,62.7419355 L95.0543478,62.7419355 C94.2521739,57.8503226 92.3565217,54.3274839 89.7086957,51.9058065 L89.7086957,51.9058065 Z M95.4347826,67.1290323 L88.3913043,67.1290323 C85.6391304,71.1037419 81.0804348,73.7096774 75.9130435,73.7096774 C70.7434783,73.7096774 66.1826087,71.1037419 63.4347826,67.1290323 L56.3913043,67.1290323 C56.3782609,67.5216774 56.3478261,67.8923871 56.3478261,68.2981935 C56.3478261,75.615871 57.1369565,89.1018065 61.6826087,94.9147097 C69.1195652,104.419355 70.126087,104.419355 75.9130435,104.419355 C83.1391304,104.419355 82.976087,104.419355 90.1413043,94.9147097 C95.0869565,88.356 95.4782609,76.7565161 95.4782609,68.2981935 C95.4782609,67.8923871 95.4478261,67.5216774 95.4347826,67.1290323 L95.4347826,67.1290323 Z M85.6956522,80.2903226 C83.8934783,80.2903226 82.4347826,78.8184516 82.4347826,77 C82.4347826,75.1837419 83.8934783,73.7096774 85.6956522,73.7096774 C87.4956522,73.7096774 88.9565217,75.1837419 88.9565217,77 C88.9565217,78.8184516 87.4956522,80.2903226 85.6956522,80.2903226 L85.6956522,80.2903226 Z M84.6086957,91.2580645 C84.6086957,91.2580645 82.5173913,97.8387097 75.9130435,97.8387097 C69.1695652,97.8387097 67.2173913,91.2580645 67.2173913,91.2580645 L67.2173913,91.2580645 C67.2173913,91.2580645 69.876087,93.4538065 75.9130435,93.4538065 C81.4673913,93.4538065 84.6086957,91.2580645 84.6086957,91.2580645 L84.6086957,91.2580645 L84.6086957,91.2580645 Z M66.1304348,80.2903226 C64.3282609,80.2903226 62.8695652,78.8184516 62.8695652,77 C62.8695652,75.1837419 64.3282609,73.7096774 66.1304348,73.7096774 C67.9304348,73.7096774 69.3913043,75.1837419 69.3913043,77 C69.3913043,78.8184516 67.9304348,80.2903226 66.1304348,80.2903226 L66.1304348,80.2903226 Z M75.9130435,62.7419355 C73.5130435,62.7419355 71.5652174,60.7765161 71.5652174,58.3570323 C71.5652174,55.9331613 73.5130435,53.9677419 75.9130435,53.9677419 C78.3130435,53.9677419 80.2608696,55.9331613 80.2608696,58.3570323 C80.2608696,60.7787097 78.3130435,62.7419355 75.9130435,62.7419355 L75.9130435,62.7419355 Z" id="Shape" fill="#128080" sketch:type="MSShapeGroup"></path>
            </g>
        </g>
    </g>
</svg>