<?xml version="1.0" encoding="UTF-8" standalone="no"?>
<svg width="152px" height="152px" viewBox="0 0 152 152" version="1.1" xmlns="http://www.w3.org/2000/svg" xmlns:xlink="http://www.w3.org/1999/xlink" xmlns:sketch="http://www.bohemiancoding.com/sketch/ns">
    <!-- Generator: Sketch 3.4.2 (15855) - http://www.bohemiancoding.com/sketch -->
    <title>tool-reverse</title>
    <desc>Created with Sketch.</desc>
    <defs></defs>
    <g id="Page-1" stroke="none" stroke-width="1" fill="none" fill-rule="evenodd" sketch:type="MSPage">
        <g id="tool-reverse" sketch:type="MSArtboardGroup">
            <g sketch:type="MSLayerGroup">
                <circle id="Oval-4" fill="#FFFFFF" sketch:type="MSShapeGroup" cx="76" cy="76" r="76"></circle>
                <g id="Group" transform="translate(43.000000, 43.000000)" fill="#128080" sketch:type="MSShapeGroup">
                    <path d="M55.0103226,22.1268387 C52.7487742,22.1268387 50.3534194,21.5981935 48.4296774,19.9332903 C46.2909677,22.3110968 44.8827097,23.7303226 42.4654194,26.5819355 C39.4997419,30.0806452 36.7753548,35.0139355 36.7753548,35.0139355 L31.2914839,29.6660645 C31.2914839,29.6660645 36.1633548,26.7310968 39.5874839,23.908 C42.7571613,21.2910968 44.1369032,20.0232258 46.236129,17.7375484 C45.0450323,16.02 44.0425806,13.9076129 44.0425806,11.1569032 C44.0425806,5.09832258 48.9517419,0.18916129 55.0103226,0.18916129 C61.0689032,0.18916129 65.9780645,5.09832258 65.9780645,11.1569032 C65.9780645,17.2154839 61.0689032,22.1268387 55.0103226,22.1268387 L55.0103226,22.1268387 Z M55.0103226,4.58064516 C51.3778065,4.58064516 48.4296774,7.52658065 48.4296774,11.1590968 C48.4296774,14.6797419 51.2790968,17.7397419 55.0103226,17.7397419 C58.6428387,17.7397419 61.5909677,14.7938065 61.5909677,11.1590968 C61.5909677,7.52658065 58.6428387,4.58064516 55.0103226,4.58064516 L55.0103226,4.58064516 Z M30.071871,40.6009032 L25.5707097,36.0997419 L28.5692903,33.0967742 L33.0726452,37.600129 L30.071871,40.6009032 L30.071871,40.6009032 Z M4.67496774,65.9978065 L0.173806452,61.4922581 L22.5677419,39.0983226 L27.0689032,43.5994839 L4.67496774,65.9978065 L4.67496774,65.9978065 Z" id="Shape"></path>
                </g>
            </g>
        </g>
    </g>
</svg>