<?xml version="1.0" encoding="UTF-8" standalone="no"?>
<svg width="152px" height="152px" viewBox="0 0 152 152" version="1.1" xmlns="http://www.w3.org/2000/svg" xmlns:xlink="http://www.w3.org/1999/xlink" xmlns:sketch="http://www.bohemiancoding.com/sketch/ns">
    <!-- Generator: Sketch 3.4.2 (15855) - http://www.bohemiancoding.com/sketch -->
    <title>tooth-reverse</title>
    <desc>Created with Sketch.</desc>
    <defs>
        <path d="M34.6029633,15.9875 C31.4823049,15.9108333 28.9239498,16.6708333 26.5736387,17.4516667 C24.8499658,18.025 23.271673,18.025 21.5488356,17.4516667 C19.2001955,16.6716667 16.6284722,15.9175 13.521182,15.9875 C8.66682453,16.1091667 4.88777822,18.2566667 2.5901047,22.1975 C-1.05275223,28.445 -0.491284375,38.9383333 3.91523568,47.1333333 C6.48695899,52.1791667 7.19464244,56.9041667 7.94326625,61.9041667 C8.44123477,65.2258333 8.95507812,68.66 10.062139,72.2008333 C10.585173,73.875 12.1150058,74.9975 13.8695929,74.9975 L13.9631709,74.9958333 C15.7620404,74.9575 17.2776694,73.765 17.7363686,72.03 C18.2000809,70.2758333 18.5468207,68.3716667 18.915284,66.3558333 C19.3890225,63.7583333 19.8786358,61.0741667 20.6414634,58.6833333 C21.1252281,57.1683333 22.467905,56.19 24.0620727,56.19 C25.6562403,56.19 26.9980817,57.1683333 27.4818464,58.6833333 C28.2455095,61.075 28.7351228,63.7616667 29.2088613,66.3591667 C29.5764891,68.3741667 29.9232289,70.2766667 30.3861057,72.03 C30.8448049,73.765 32.3604339,74.9566667 34.1593034,74.9975 L34.2503748,74.9991667 C36.0066329,74.9991667 37.5381367,73.8741667 38.0594998,72.2008333 C39.2283889,68.4608333 39.7647913,65.0516667 40.2836477,61.7558333 C41.0347781,56.9791667 41.7449681,52.4666667 44.2231134,47.1041667 C48.6279624,38.9133333 49.1860882,28.4408333 45.5515865,22.205 C43.2522419,18.26 39.465676,16.11 34.6029633,15.9875 L34.6029633,15.9875 Z M42.7927072,46.3925 C40.1992604,51.9983333 39.4381039,56.8325 38.7020128,61.5091667 C38.1931826,64.7483333 37.6659709,68.0966667 36.5321735,71.7258333 C36.2138413,72.7458333 35.3190019,73.4025 34.2512103,73.4025 L34.2512103,74.2008333 L34.1952306,73.4025 C33.1007025,73.3775 32.2142183,72.68 31.9351554,71.625 C31.4881535,69.9325 31.1464268,68.0575 30.7846476,66.0741667 C30.3017184,63.4266667 29.8020789,60.69 29.0075016,58.2008333 C28.3081733,56.0091667 26.3672658,54.5941667 24.0629082,54.5941667 C21.7568795,54.5941667 19.815972,56.0091667 19.1174792,58.2008333 C18.322902,60.6883333 17.8232624,63.4258333 17.3411687,66.0716667 C16.9785541,68.0558333 16.6368273,69.9308333 16.1889899,71.625 C15.9107625,72.68 15.0242783,73.3775 13.8712639,73.4025 C12.8051434,73.4025 11.910304,72.7441667 11.5919718,71.7258333 C10.5216737,68.3025 10.0178566,64.93 9.52824322,61.67 C8.79382321,56.7616667 8.03350215,51.6875 5.33561568,46.3941667 C1.16554711,38.6391667 0.594053045,28.8016667 3.97622847,23.0008333 C6.00820738,19.5158333 9.23330549,17.6933333 13.5637934,17.5841667 C16.4254414,17.5208333 18.8283901,18.2308333 21.0450184,18.9675 C23.1003918,19.6491667 25.02626,19.6491667 27.0816334,18.9675 C29.2999328,18.23 31.7062236,17.525 34.565365,17.5841667 C38.9033726,17.6933333 42.1359903,19.5183333 44.1704758,23.0075 C47.542625,28.7966667 46.9736375,38.6133333 42.7927072,46.3925 L42.7927072,46.3925 Z" id="path-1"></path>
        <path d="M56.1944102,2.12916667 L54.5927229,2.12916667 C54.5927229,7.05416667 53.7271266,10.2066667 51.9466385,11.7691667 C50.4945089,13.0433333 48.5795024,13.1466667 46.4096631,13.1466667 L45.8306494,13.1466667 C45.8239652,13.1458333 45.8164456,13.1458333 45.8105969,13.1458333 L45.8105969,14.7433333 L45.8281428,14.7433333 C50.9899708,14.7525 54.5927229,19.28 54.5927229,25.76 L56.1944102,25.76 C56.1944102,21.6683333 58.0442463,14.7433333 64.9773717,14.7433333 L64.9773717,13.1458333 C61.2066806,13.1458333 56.1944102,12.0041667 56.1944102,2.12916667 L56.1944102,2.12916667 Z M55.3939843,20.6333333 C54.4456718,17.8125 52.7052886,15.6033333 50.4443778,14.3366667 C51.3383817,14.0791667 52.2173462,13.6575 53.0035684,12.9683333 C54.1532406,11.9608333 54.9862517,10.475 55.5126278,8.4825 C56.4868414,11.2741667 58.2322378,13.1375 60.7387907,14.0616667 C58.0810091,15.3333333 56.324751,17.8 55.3939843,20.6333333 L55.3939843,20.6333333 Z" id="path-2"></path>
        <path d="M34.541135,11.3516667 L36.1428223,11.3516667 C36.1428223,8.435 38.1079598,6.475 41.0331071,6.475 L41.0331071,4.8775 C37.8614821,4.8775 36.1428223,4.10083333 36.1428223,0 L34.541135,0 C34.541135,4.1725 33.3204437,4.8775 29.6516857,4.8775 L29.6516857,6.475 C33.6930845,6.47583333 34.541135,9.1275 34.541135,11.3516667 L34.541135,11.3516667 Z M35.4017181,4.03166667 C35.9055353,4.91666667 36.5998504,5.49 37.4002763,5.8575 C36.5672652,6.37583333 35.8854828,7.0825 35.3983761,7.94 C34.9513741,7.07166667 34.3105321,6.37166667 33.4984089,5.86166667 C34.3147097,5.48666667 34.9555517,4.90666667 35.4017181,4.03166667 L35.4017181,4.03166667 Z" id="path-3"></path>
        <path d="M57.249669,32.8525 L55.6479817,32.8525 C55.6479817,37.3266667 54.2543383,38.145 51.5079918,38.145 L51.5079918,39.7425 C54.8642661,39.7425 55.6479817,40.1233333 55.6479817,43.8725 L57.249669,43.8725 C57.249669,40.0983333 57.9815825,39.7425 61.39133,39.7425 L61.39133,38.145 C58.1779291,38.1441667 57.249669,36.9583333 57.249669,32.8525 L57.249669,32.8525 Z M56.4492431,39.8566667 C56.134253,39.355 55.7248493,38.9933333 55.2151836,38.7341667 C55.735711,38.3483333 56.1275688,37.8683333 56.42,37.3233333 C56.7124312,37.8983333 57.1051245,38.3833333 57.6248164,38.7641667 C57.1427228,39.02 56.7517005,39.3733333 56.4492431,39.8566667 L56.4492431,39.8566667 Z" id="path-4"></path>
    </defs>
    <g id="Page-1" stroke="none" stroke-width="1" fill="none" fill-rule="evenodd" sketch:type="MSPage">
        <g id="tooth-reverse" sketch:type="MSArtboardGroup">
            <g sketch:type="MSLayerGroup" id="Group">
                <g>
                    <circle id="Oval-4" fill="#FFFFFF" sketch:type="MSShapeGroup" cx="76" cy="76" r="76"></circle>
                    <g transform="translate(51.000000, 39.000000)" id="Shape">
                        <g>
                            <use stroke="none" sketch:type="MSShapeGroup" xlink:href="#path-1"></use>
                            <use stroke="#128080" stroke-width="3" xlink:href="#path-1"></use>
                        </g>
                        <g>
                            <use stroke="none" fill="#128080" fill-rule="evenodd" sketch:type="MSShapeGroup" xlink:href="#path-2"></use>
                            <use stroke="#128080" stroke-width="2" fill="none" xlink:href="#path-2"></use>
                        </g>
                        <g>
                            <use stroke="none" fill="#128080" fill-rule="evenodd" sketch:type="MSShapeGroup" xlink:href="#path-3"></use>
                            <use stroke="#128080" stroke-width="2" fill="none" xlink:href="#path-3"></use>
                        </g>
                        <g>
                            <use stroke="none" fill="#128080" fill-rule="evenodd" sketch:type="MSShapeGroup" xlink:href="#path-4"></use>
                            <use stroke="#128080" stroke-width="2" fill="none" xlink:href="#path-4"></use>
                        </g>
                    </g>
                </g>
            </g>
        </g>
    </g>
</svg>