<?xml version="1.0" encoding="UTF-8" standalone="no"?>
<svg width="152px" height="152px" viewBox="0 0 152 152" version="1.1" xmlns="http://www.w3.org/2000/svg" xmlns:xlink="http://www.w3.org/1999/xlink" xmlns:sketch="http://www.bohemiancoding.com/sketch/ns">
    <!-- Generator: Sketch 3.4.2 (15855) - http://www.bohemiancoding.com/sketch -->
    <title>toothbrush-reverse</title>
    <desc>Created with Sketch.</desc>
    <defs></defs>
    <g id="Page-1" stroke="none" stroke-width="1" fill="none" fill-rule="evenodd" sketch:type="MSPage">
        <g id="toothbrush-reverse" sketch:type="MSArtboardGroup">
            <g sketch:type="MSLayerGroup">
                <circle id="Oval-4" fill="#FFFFFF" sketch:type="MSShapeGroup" cx="76" cy="76" r="76"></circle>
                <g id="Group" transform="translate(34.000000, 57.000000)" fill="#128080" sketch:type="MSShapeGroup">
                    <g transform="translate(-0.000000, 0.000000)" id="Shape">
                        <path d="M83.1521,37.675 L1.8479,37.675 C0.8262,37.675 0,36.4114 0,34.8488 C0,33.2862 0.8262,32.0226 1.8479,32.0226 L83.1521,32.0226 C84.1738,32.0226 85,33.2862 85,34.8488 C85,36.4114 84.1738,37.675 83.1521,37.675 L83.1521,37.675 Z"></path>
                        <path d="M5.62682353,37.2473 C4.07129412,37.2473 2.81341176,35.9837 2.81341176,34.4211 L2.81341176,17.4652 C2.81341176,15.9026 4.07129412,14.639 5.62682353,14.639 C7.18235294,14.639 8.44023529,15.9026 8.44023529,17.4652 L8.44023529,34.4211 C8.44023529,35.9837 7.18105882,37.2473 5.62682353,37.2473 L5.62682353,37.2473 Z"></path>
                        <path d="M14.0670588,37.2473 C12.5115294,37.2473 11.2536471,35.9837 11.2536471,34.4211 L11.2536471,17.4652 C11.2536471,15.9026 12.5115294,14.639 14.0670588,14.639 C15.6225882,14.639 16.8804706,15.9026 16.8804706,17.4652 L16.8804706,34.4211 C16.8791765,35.9837 15.6212941,37.2473 14.0670588,37.2473 L14.0670588,37.2473 Z"></path>
                        <path d="M22.506,37.2473 C20.9504706,37.2473 19.6925882,35.9837 19.6925882,34.4211 L19.6925882,17.4652 C19.6925882,15.9026 20.9504706,14.639 22.506,14.639 C24.0615294,14.639 25.3194118,15.9026 25.3194118,17.4652 L25.3194118,34.4211 C25.3194118,35.9837 24.0615294,37.2473 22.506,37.2473 L22.506,37.2473 Z"></path>
                        <path d="M30.9462353,37.2473 C29.3907059,37.2473 28.1328235,35.9837 28.1328235,34.4211 L28.1328235,17.4652 C28.1328235,15.9026 29.3907059,14.639 30.9462353,14.639 C32.5017647,14.639 33.7596471,15.9026 33.7596471,17.4652 L33.7596471,34.4211 C33.7596471,35.9837 32.5017647,37.2473 30.9462353,37.2473 L30.9462353,37.2473 Z"></path>
                        <path d="M24.0252941,12.5057 C20.4121176,12.5057 18.3712941,10.4491 16.5414118,8.6057 L16.1247059,8.1858 C14.1214118,6.1682 13.5636471,5.7158 11.6871765,6.0408 C9.40176471,6.4477 8.47,7.8491 8.36905882,8.9281 C8.22282353,10.4829 6.87694118,11.6659 5.302,11.4735 C3.75552941,11.3266 2.62058824,9.9473 2.76941176,8.3925 C3.08,5.097 5.65658824,1.3712 10.7088235,0.4768 C15.5824706,-0.3838 17.9778824,2.0472 20.108,4.1922 L20.5234118,4.6121 C22.5292941,6.6297 23.0754118,7.0899 24.9687059,6.7623 C27.1725882,6.371 28.2298824,5.0619 28.2790588,4.0102 C28.3502353,2.4944 29.5951765,1.3166 31.0872941,1.3166 C31.1338824,1.3166 31.1778824,1.3166 31.2218824,1.3192 C32.7735294,1.3933 33.9744706,2.7154 33.9007059,4.2754 C33.7117647,8.2833 30.5165882,11.5203 25.9470588,12.3263 C25.2598824,12.4472 24.6218824,12.5057 24.0252941,12.5057 L24.0252941,12.5057 Z"></path>
                    </g>
                </g>
            </g>
        </g>
    </g>
</svg>