<?xml version="1.0" encoding="UTF-8" standalone="no"?>
<svg width="152px" height="152px" viewBox="0 0 152 152" version="1.1" xmlns="http://www.w3.org/2000/svg" xmlns:xlink="http://www.w3.org/1999/xlink" xmlns:sketch="http://www.bohemiancoding.com/sketch/ns">
    <!-- Generator: Sketch 3.4.2 (15855) - http://www.bohemiancoding.com/sketch -->
    <title>toothbrush</title>
    <desc>Created with Sketch.</desc>
    <defs></defs>
    <g id="Page-1" stroke="none" stroke-width="1" fill="none" fill-rule="evenodd" sketch:type="MSPage">
        <g id="toothbrush" sketch:type="MSArtboardGroup">
            <g sketch:type="MSLayerGroup">
                <circle id="Oval-4" fill="#128080" sketch:type="MSShapeGroup" cx="76" cy="76" r="76"></circle>
                <g id="Group" transform="translate(34.000000, 61.000000)" fill="#C7EDED" sketch:type="MSShapeGroup">
                    <g transform="translate(-0.000000, 0.000000)" id="Shape">
                        <path d="M83.1521,29.75 L1.8479,29.75 C0.8262,29.75 0,28.778 0,27.576 C0,26.374 0.8262,25.402 1.8479,25.402 L83.1521,25.402 C84.1738,25.402 85,26.374 85,27.576 C85,28.778 84.1738,29.75 83.1521,29.75 L83.1521,29.75 Z"></path>
                        <path d="M4.348,29.421 C3.146,29.421 2.174,28.449 2.174,27.247 L2.174,14.204 C2.174,13.002 3.146,12.03 4.348,12.03 C5.55,12.03 6.522,13.002 6.522,14.204 L6.522,27.247 C6.522,28.449 5.549,29.421 4.348,29.421 L4.348,29.421 Z"></path>
                        <path d="M10.87,29.421 C9.668,29.421 8.696,28.449 8.696,27.247 L8.696,14.204 C8.696,13.002 9.668,12.03 10.87,12.03 C12.072,12.03 13.044,13.002 13.044,14.204 L13.044,27.247 C13.043,28.449 12.071,29.421 10.87,29.421 L10.87,29.421 Z"></path>
                        <path d="M17.391,29.421 C16.189,29.421 15.217,28.449 15.217,27.247 L15.217,14.204 C15.217,13.002 16.189,12.03 17.391,12.03 C18.593,12.03 19.565,13.002 19.565,14.204 L19.565,27.247 C19.565,28.449 18.593,29.421 17.391,29.421 L17.391,29.421 Z"></path>
                        <path d="M23.913,29.421 C22.711,29.421 21.739,28.449 21.739,27.247 L21.739,14.204 C21.739,13.002 22.711,12.03 23.913,12.03 C25.115,12.03 26.087,13.002 26.087,14.204 L26.087,27.247 C26.087,28.449 25.115,29.421 23.913,29.421 L23.913,29.421 Z"></path>
                        <path d="M18.565,10.389 C15.773,10.389 14.196,8.807 12.782,7.389 L12.46,7.066 C10.912,5.514 10.481,5.166 9.031,5.416 C7.265,5.729 6.545,6.807 6.467,7.637 C6.354,8.833 5.314,9.743 4.097,9.595 C2.902,9.482 2.025,8.421 2.14,7.225 C2.38,4.69 4.371,1.824 8.275,1.136 C12.041,0.474 13.892,2.344 15.538,3.994 L15.859,4.317 C17.409,5.869 17.831,6.223 19.294,5.971 C20.997,5.67 21.814,4.663 21.852,3.854 C21.907,2.688 22.869,1.782 24.022,1.782 C24.058,1.782 24.092,1.782 24.126,1.784 C25.325,1.841 26.253,2.858 26.196,4.058 C26.05,7.141 23.581,9.631 20.05,10.251 C19.519,10.344 19.026,10.389 18.565,10.389 L18.565,10.389 Z"></path>
                    </g>
                </g>
            </g>
        </g>
    </g>
</svg>